<svg xmlns="http://www.w3.org/2000/svg" width="24" height="24" viewBox="0 0 24 24" fill="none">
  <path d="M 12 0 C 5.372 0 0 5.372 0 12 C 0 18.628 5.372 24 12 24 C 18.628 24 24 18.628 24 12 C 24 5.372 18.628 0 12 0 Z M 18.77 14.479 L 18.77 9.521 L 23.651 11.542 C 23.657 11.694 23.66 11.846 23.66 12 C 23.66 12.154 23.657 12.306 23.651 12.458 L 18.77 14.479 Z M 23.63 12.835 C 23.446 15.427 22.416 17.785 20.813 19.634 L 18.822 14.826 L 23.63 12.835 Z M 23.63 11.165 L 18.822 9.174 L 20.813 4.366 C 22.416 6.215 23.446 8.573 23.63 11.165 Z M 20.562 4.085 L 18.541 8.966 L 15.034 5.459 L 19.915 3.438 C 20.139 3.645 20.354 3.861 20.562 4.085 Z M 14.663 18.43 L 9.337 18.43 L 5.57 14.663 L 5.57 9.337 L 9.337 5.57 L 14.663 5.57 L 18.43 9.337 L 18.43 14.663 L 14.663 18.43 Z M 14.826 18.822 L 19.634 20.813 C 17.785 22.416 15.427 23.447 12.835 23.63 L 14.826 18.822 Z M 11.166 23.63 C 8.573 23.447 6.215 22.417 4.366 20.814 L 9.174 18.823 L 11.165 23.63 L 11.166 23.63 Z M 9.175 5.178 L 4.367 3.187 C 6.215 1.583 8.573 0.553 11.166 0.37 L 9.175 5.178 Z M 12.835 0.37 C 15.427 0.554 17.785 1.584 19.634 3.187 L 14.826 5.178 L 12.835 0.37 Z M 12.458 0.349 L 14.479 5.23 L 9.521 5.23 L 11.543 0.349 C 11.695 0.343 11.847 0.34 12 0.34 C 12.153 0.34 12.306 0.343 12.458 0.349 Z M 4.085 3.438 L 8.966 5.459 L 5.46 8.966 L 3.439 4.085 C 3.646 3.861 3.862 3.645 4.086 3.437 L 4.085 3.438 Z M 0.349 12.458 C 0.343 12.306 0.34 12.154 0.34 12 C 0.34 11.846 0.343 11.695 0.349 11.543 L 5.23 9.521 L 5.23 14.479 L 0.349 12.458 Z M 5.178 14.826 L 3.187 19.634 C 1.584 17.785 0.553 15.427 0.37 12.834 L 5.178 14.825 L 5.178 14.826 Z M 0.37 11.166 C 0.553 8.573 1.583 6.215 3.187 4.366 L 5.178 9.174 L 0.37 11.166 Z M 3.438 19.915 L 5.459 15.034 L 8.966 18.541 L 4.085 20.562 C 3.861 20.355 3.645 20.139 3.437 19.915 L 3.438 19.915 Z M 11.543 23.651 L 9.521 18.77 L 14.479 18.77 L 12.457 23.651 C 12.305 23.657 12.153 23.66 11.999 23.66 C 11.846 23.66 11.694 23.657 11.542 23.651 L 11.543 23.651 Z M 19.915 20.562 L 15.034 18.541 L 18.541 15.034 L 20.562 19.915 C 20.355 20.138 20.139 20.354 19.915 20.562 Z" fill="currentColor" fill-rule="nonzero"></path>
</svg>