<svg xmlns="http://www.w3.org/2000/svg" width="126" height="22" viewBox="0 0 126 22" fill="none">
  <path d="M 37.571 19.853 C 37.571 19.774 37.558 19.703 37.536 19.641 C 37.512 19.579 37.47 19.52 37.408 19.468 C 37.346 19.417 37.26 19.365 37.151 19.318 C 37.042 19.271 36.902 19.219 36.729 19.167 C 36.541 19.111 36.366 19.046 36.208 18.975 C 36.05 18.903 35.911 18.819 35.795 18.723 C 35.679 18.627 35.59 18.516 35.526 18.393 C 35.462 18.267 35.427 18.124 35.427 17.963 C 35.427 17.803 35.462 17.657 35.529 17.524 C 35.598 17.391 35.692 17.275 35.815 17.176 C 35.939 17.077 36.087 17.003 36.257 16.947 C 36.43 16.892 36.62 16.865 36.828 16.865 C 37.05 16.865 37.25 16.897 37.428 16.961 C 37.605 17.026 37.754 17.112 37.877 17.223 C 37.998 17.334 38.092 17.462 38.159 17.605 C 38.223 17.751 38.257 17.906 38.257 18.072 L 37.573 18.072 C 37.573 17.976 37.558 17.887 37.529 17.808 C 37.499 17.726 37.452 17.657 37.393 17.598 C 37.331 17.539 37.255 17.494 37.158 17.46 C 37.062 17.425 36.954 17.41 36.825 17.41 C 36.704 17.41 36.598 17.423 36.509 17.45 C 36.42 17.477 36.346 17.514 36.287 17.563 C 36.228 17.613 36.186 17.67 36.156 17.736 C 36.129 17.803 36.114 17.874 36.114 17.953 C 36.114 18.099 36.183 18.222 36.321 18.319 C 36.46 18.415 36.672 18.506 36.956 18.59 C 37.178 18.654 37.371 18.728 37.534 18.807 C 37.697 18.886 37.833 18.977 37.939 19.076 C 38.047 19.177 38.126 19.291 38.178 19.417 C 38.23 19.542 38.257 19.683 38.257 19.841 C 38.257 20.006 38.225 20.157 38.159 20.29 C 38.092 20.423 37.998 20.537 37.877 20.628 C 37.754 20.722 37.608 20.793 37.433 20.843 C 37.26 20.892 37.065 20.917 36.852 20.917 C 36.662 20.917 36.474 20.892 36.289 20.84 C 36.104 20.788 35.939 20.712 35.793 20.606 C 35.647 20.502 35.529 20.371 35.44 20.216 C 35.351 20.061 35.306 19.878 35.306 19.668 L 35.993 19.668 C 35.993 19.794 36.015 19.9 36.06 19.989 C 36.104 20.078 36.163 20.152 36.242 20.209 C 36.321 20.265 36.41 20.307 36.516 20.332 C 36.62 20.359 36.734 20.371 36.855 20.371 C 37.094 20.371 37.272 20.322 37.393 20.226 C 37.514 20.13 37.573 20.001 37.573 19.841 L 37.571 19.853 Z" fill="currentColor" fill-rule="nonzero"></path>
  <path d="M 39.354 17.174 C 39.354 17.072 39.386 16.989 39.45 16.922 C 39.514 16.855 39.606 16.821 39.727 16.821 C 39.848 16.821 39.939 16.855 40.003 16.922 C 40.067 16.989 40.102 17.072 40.102 17.174 C 40.102 17.275 40.07 17.356 40.003 17.423 C 39.939 17.489 39.845 17.522 39.727 17.522 C 39.608 17.522 39.514 17.489 39.45 17.423 C 39.386 17.356 39.354 17.275 39.354 17.174 Z M 40.055 20.872 L 39.396 20.872 L 39.396 17.939 L 40.055 17.939 L 40.055 20.872 Z" fill="currentColor" fill-rule="nonzero"></path>
  <path d="M 41.946 17.936 L 41.966 18.242 C 42.065 18.129 42.184 18.04 42.324 17.976 C 42.465 17.911 42.628 17.879 42.813 17.879 C 42.998 17.879 43.152 17.916 43.295 17.985 C 43.436 18.057 43.544 18.17 43.621 18.328 C 43.719 18.19 43.843 18.082 43.991 18 C 44.139 17.919 44.317 17.877 44.522 17.877 C 44.675 17.877 44.811 17.897 44.929 17.939 C 45.048 17.98 45.149 18.045 45.233 18.131 C 45.317 18.217 45.379 18.331 45.423 18.469 C 45.468 18.607 45.49 18.773 45.49 18.965 L 45.49 20.867 L 44.831 20.867 L 44.831 18.963 C 44.831 18.854 44.818 18.765 44.794 18.696 C 44.769 18.627 44.734 18.57 44.687 18.528 C 44.641 18.486 44.586 18.459 44.522 18.442 C 44.458 18.425 44.386 18.417 44.305 18.417 C 44.154 18.417 44.033 18.457 43.937 18.538 C 43.843 18.62 43.776 18.723 43.737 18.854 C 43.737 18.864 43.737 18.874 43.737 18.884 C 43.737 18.893 43.737 18.903 43.737 18.913 L 43.737 20.87 L 43.077 20.87 L 43.077 18.975 C 43.077 18.871 43.065 18.785 43.04 18.713 C 43.016 18.644 42.981 18.585 42.934 18.543 C 42.887 18.499 42.833 18.469 42.766 18.449 C 42.7 18.43 42.628 18.42 42.547 18.42 C 42.406 18.42 42.29 18.449 42.198 18.506 C 42.107 18.565 42.035 18.642 41.986 18.743 L 41.986 20.87 L 41.327 20.87 L 41.327 17.936 L 41.949 17.936 L 41.946 17.936 Z" fill="currentColor" fill-rule="nonzero"></path>
  <path d="M 49.293 19.434 C 49.293 19.646 49.268 19.846 49.219 20.028 C 49.169 20.211 49.095 20.369 48.999 20.502 C 48.903 20.635 48.782 20.739 48.641 20.813 C 48.498 20.887 48.337 20.927 48.154 20.927 C 47.986 20.927 47.838 20.9 47.712 20.845 C 47.586 20.791 47.475 20.712 47.381 20.608 L 47.381 22 L 46.722 22 L 46.722 17.936 L 47.33 17.936 L 47.357 18.235 C 47.451 18.121 47.562 18.035 47.693 17.973 C 47.821 17.911 47.974 17.882 48.147 17.882 C 48.335 17.882 48.498 17.919 48.641 17.99 C 48.784 18.062 48.903 18.166 49.001 18.296 C 49.098 18.427 49.172 18.585 49.221 18.768 C 49.271 18.95 49.295 19.155 49.295 19.377 L 49.295 19.434 L 49.293 19.434 Z M 48.636 19.377 C 48.636 19.246 48.624 19.12 48.596 19.004 C 48.569 18.889 48.53 18.787 48.475 18.701 C 48.421 18.615 48.352 18.546 48.266 18.496 C 48.182 18.447 48.078 18.422 47.959 18.422 C 47.814 18.422 47.695 18.452 47.601 18.511 C 47.507 18.57 47.433 18.652 47.379 18.755 L 47.379 20.058 C 47.433 20.162 47.507 20.243 47.601 20.307 C 47.695 20.369 47.816 20.401 47.967 20.401 C 48.085 20.401 48.189 20.376 48.273 20.325 C 48.357 20.273 48.426 20.204 48.48 20.115 C 48.535 20.026 48.574 19.925 48.599 19.806 C 48.624 19.688 48.636 19.565 48.636 19.434 L 48.636 19.377 Z" fill="currentColor" fill-rule="nonzero"></path>
  <path d="M 51.108 20.872 L 50.448 20.872 L 50.448 16.707 L 51.108 16.707 L 51.108 20.872 Z" fill="currentColor" fill-rule="nonzero"></path>
  <path d="M 53.676 20.927 C 53.459 20.927 53.263 20.89 53.091 20.818 C 52.918 20.747 52.77 20.645 52.649 20.52 C 52.528 20.394 52.434 20.243 52.37 20.068 C 52.305 19.895 52.271 19.708 52.271 19.505 L 52.271 19.397 C 52.271 19.165 52.305 18.955 52.374 18.77 C 52.444 18.583 52.537 18.425 52.656 18.294 C 52.775 18.163 52.915 18.062 53.078 17.99 C 53.241 17.919 53.414 17.884 53.602 17.884 C 53.817 17.884 54.002 17.921 54.157 17.99 C 54.315 18.062 54.446 18.161 54.547 18.291 C 54.651 18.42 54.728 18.573 54.777 18.75 C 54.827 18.928 54.854 19.123 54.854 19.333 L 54.854 19.614 L 52.935 19.614 C 52.945 19.727 52.967 19.834 53.007 19.93 C 53.046 20.026 53.098 20.107 53.165 20.179 C 53.231 20.248 53.31 20.302 53.402 20.342 C 53.493 20.381 53.597 20.401 53.713 20.401 C 53.876 20.401 54.017 20.369 54.138 20.305 C 54.259 20.241 54.362 20.149 54.451 20.036 L 54.807 20.374 C 54.76 20.443 54.701 20.512 54.631 20.579 C 54.562 20.645 54.481 20.702 54.387 20.754 C 54.293 20.806 54.189 20.848 54.071 20.88 C 53.952 20.912 53.822 20.927 53.673 20.927 L 53.676 20.927 Z M 53.597 18.412 C 53.417 18.412 53.271 18.476 53.157 18.602 C 53.046 18.728 52.975 18.906 52.945 19.13 L 54.202 19.13 L 54.202 19.081 C 54.197 18.995 54.182 18.911 54.16 18.829 C 54.138 18.748 54.103 18.676 54.056 18.615 C 54.009 18.553 53.947 18.504 53.873 18.467 C 53.799 18.43 53.705 18.41 53.597 18.41 L 53.597 18.412 Z" fill="currentColor" fill-rule="nonzero"></path>
  <path d="M 57.758 19.806 C 57.758 19.69 57.775 19.584 57.812 19.491 C 57.849 19.394 57.898 19.308 57.965 19.224 C 58.029 19.143 58.108 19.064 58.2 18.987 C 58.291 18.913 58.39 18.837 58.498 18.758 C 58.434 18.679 58.377 18.602 58.328 18.528 C 58.276 18.454 58.234 18.383 58.2 18.311 C 58.165 18.24 58.138 18.168 58.116 18.096 C 58.096 18.025 58.086 17.951 58.086 17.874 C 58.086 17.716 58.111 17.576 58.16 17.452 C 58.209 17.329 58.281 17.223 58.37 17.137 C 58.461 17.05 58.57 16.984 58.698 16.939 C 58.827 16.892 58.97 16.87 59.128 16.87 C 59.286 16.87 59.415 16.892 59.536 16.942 C 59.657 16.989 59.76 17.053 59.844 17.132 C 59.928 17.213 59.995 17.307 60.042 17.413 C 60.089 17.519 60.111 17.633 60.111 17.751 C 60.111 17.845 60.099 17.934 60.074 18.013 C 60.049 18.094 60.012 18.168 59.965 18.24 C 59.918 18.311 59.861 18.378 59.795 18.439 C 59.728 18.501 59.657 18.563 59.578 18.62 L 59.308 18.814 L 60.071 19.715 C 60.123 19.611 60.165 19.5 60.195 19.38 C 60.224 19.259 60.239 19.13 60.239 18.992 L 60.812 18.992 C 60.812 19.227 60.785 19.444 60.731 19.644 C 60.676 19.843 60.59 20.026 60.469 20.189 L 61.049 20.875 L 60.284 20.875 L 60.061 20.611 C 59.916 20.719 59.758 20.798 59.587 20.85 C 59.415 20.902 59.237 20.927 59.052 20.927 C 58.852 20.927 58.674 20.9 58.513 20.843 C 58.353 20.788 58.219 20.71 58.108 20.611 C 57.997 20.512 57.911 20.394 57.851 20.255 C 57.792 20.117 57.763 19.969 57.763 19.806 L 57.758 19.806 Z M 59.064 20.399 C 59.175 20.399 59.281 20.379 59.387 20.342 C 59.494 20.305 59.592 20.248 59.686 20.177 L 58.822 19.16 L 58.738 19.219 C 58.664 19.276 58.605 19.33 58.563 19.384 C 58.521 19.439 58.489 19.491 58.464 19.537 C 58.442 19.587 58.427 19.631 58.419 19.673 C 58.412 19.715 58.41 19.752 58.41 19.784 C 58.41 19.871 58.424 19.952 58.451 20.026 C 58.479 20.1 58.521 20.164 58.577 20.221 C 58.632 20.278 58.701 20.32 58.78 20.352 C 58.861 20.384 58.953 20.399 59.059 20.399 L 59.064 20.399 Z M 58.701 17.855 C 58.701 17.946 58.726 18.037 58.777 18.131 C 58.827 18.225 58.896 18.323 58.98 18.427 L 59.219 18.264 C 59.276 18.227 59.323 18.19 59.363 18.156 C 59.402 18.121 59.434 18.084 59.461 18.047 C 59.486 18.01 59.506 17.968 59.518 17.924 C 59.531 17.879 59.536 17.83 59.536 17.773 C 59.536 17.729 59.526 17.682 59.508 17.638 C 59.491 17.593 59.464 17.551 59.429 17.517 C 59.395 17.482 59.35 17.452 59.298 17.43 C 59.247 17.408 59.187 17.398 59.123 17.398 C 59.054 17.398 58.995 17.41 58.94 17.435 C 58.886 17.46 58.844 17.494 58.81 17.536 C 58.775 17.578 58.748 17.628 58.731 17.682 C 58.713 17.736 58.703 17.795 58.703 17.857 L 58.701 17.855 Z" fill="currentColor" fill-rule="nonzero"></path>
  <path d="M 63.975 20.872 L 63.975 16.922 L 65.143 16.922 C 65.408 16.922 65.65 16.966 65.867 17.055 C 66.084 17.144 66.272 17.27 66.43 17.433 C 66.585 17.596 66.709 17.793 66.795 18.025 C 66.882 18.257 66.926 18.516 66.926 18.8 L 66.926 18.995 C 66.926 19.281 66.884 19.537 66.798 19.769 C 66.711 19.999 66.59 20.196 66.432 20.359 C 66.274 20.522 66.084 20.648 65.859 20.737 C 65.637 20.825 65.388 20.87 65.114 20.87 L 63.98 20.87 L 63.975 20.872 Z M 64.662 17.475 L 64.662 20.322 L 65.109 20.322 C 65.294 20.322 65.459 20.293 65.6 20.231 C 65.741 20.172 65.859 20.083 65.951 19.969 C 66.045 19.856 66.114 19.715 66.161 19.552 C 66.208 19.387 66.232 19.202 66.232 18.997 L 66.232 18.797 C 66.232 18.368 66.139 18.042 65.953 17.815 C 65.768 17.588 65.496 17.477 65.141 17.477 L 64.659 17.477 L 64.662 17.475 Z" fill="currentColor" fill-rule="nonzero"></path>
  <path d="M 69.391 20.927 C 69.173 20.927 68.978 20.89 68.805 20.818 C 68.633 20.747 68.484 20.645 68.363 20.52 C 68.242 20.394 68.149 20.243 68.084 20.068 C 68.02 19.895 67.986 19.708 67.986 19.505 L 67.986 19.397 C 67.986 19.165 68.02 18.955 68.089 18.77 C 68.158 18.583 68.252 18.425 68.371 18.294 C 68.489 18.163 68.63 18.062 68.793 17.99 C 68.956 17.919 69.129 17.884 69.317 17.884 C 69.531 17.884 69.717 17.921 69.872 17.99 C 70.03 18.062 70.161 18.161 70.262 18.291 C 70.366 18.42 70.443 18.573 70.492 18.75 C 70.541 18.928 70.568 19.123 70.568 19.333 L 70.568 19.614 L 68.65 19.614 C 68.66 19.727 68.682 19.834 68.721 19.93 C 68.761 20.026 68.813 20.107 68.879 20.179 C 68.946 20.248 69.025 20.302 69.117 20.342 C 69.208 20.381 69.312 20.401 69.428 20.401 C 69.591 20.401 69.731 20.369 69.852 20.305 C 69.973 20.241 70.077 20.149 70.166 20.036 L 70.522 20.374 C 70.475 20.443 70.415 20.512 70.346 20.579 C 70.277 20.645 70.196 20.702 70.102 20.754 C 70.008 20.806 69.904 20.848 69.786 20.88 C 69.667 20.912 69.536 20.927 69.388 20.927 L 69.391 20.927 Z M 69.314 18.412 C 69.134 18.412 68.988 18.476 68.875 18.602 C 68.763 18.728 68.692 18.906 68.662 19.13 L 69.919 19.13 L 69.919 19.081 C 69.914 18.995 69.899 18.911 69.877 18.829 C 69.855 18.748 69.82 18.676 69.773 18.615 C 69.726 18.553 69.665 18.504 69.591 18.467 C 69.517 18.43 69.423 18.41 69.314 18.41 L 69.314 18.412 Z" fill="currentColor" fill-rule="nonzero"></path>
  <path d="M 72.339 20.872 L 71.68 20.872 L 71.68 16.707 L 72.339 16.707 L 72.339 20.872 Z" fill="currentColor" fill-rule="nonzero"></path>
  <path d="M 73.613 17.174 C 73.613 17.072 73.645 16.989 73.709 16.922 C 73.774 16.855 73.865 16.821 73.986 16.821 C 74.107 16.821 74.198 16.855 74.263 16.922 C 74.327 16.989 74.361 17.072 74.361 17.174 C 74.361 17.275 74.329 17.356 74.263 17.423 C 74.198 17.489 74.105 17.522 73.986 17.522 C 73.868 17.522 73.774 17.489 73.709 17.423 C 73.645 17.356 73.613 17.275 73.613 17.174 Z M 74.314 20.872 L 73.655 20.872 L 73.655 17.939 L 74.314 17.939 L 74.314 20.872 Z" fill="currentColor" fill-rule="nonzero"></path>
  <path d="M 76.794 20.399 C 76.873 20.399 76.949 20.386 77.018 20.362 C 77.088 20.337 77.149 20.302 77.201 20.258 C 77.253 20.214 77.295 20.162 77.327 20.1 C 77.359 20.038 77.376 19.972 77.379 19.9 L 78.001 19.9 C 77.996 20.041 77.962 20.174 77.897 20.3 C 77.833 20.426 77.747 20.534 77.641 20.626 C 77.532 20.719 77.409 20.793 77.265 20.845 C 77.122 20.897 76.969 20.924 76.806 20.924 C 76.579 20.924 76.384 20.885 76.216 20.808 C 76.048 20.732 75.91 20.626 75.799 20.49 C 75.687 20.357 75.603 20.199 75.549 20.021 C 75.495 19.841 75.468 19.651 75.468 19.451 L 75.468 19.355 C 75.468 19.155 75.495 18.965 75.549 18.785 C 75.603 18.607 75.687 18.449 75.799 18.314 C 75.91 18.178 76.048 18.072 76.216 17.995 C 76.384 17.919 76.579 17.879 76.806 17.879 C 76.984 17.879 77.144 17.906 77.29 17.961 C 77.436 18.015 77.559 18.092 77.665 18.188 C 77.769 18.286 77.851 18.402 77.91 18.538 C 77.969 18.674 78.001 18.824 78.006 18.985 L 77.384 18.985 C 77.381 18.908 77.364 18.832 77.337 18.763 C 77.31 18.694 77.27 18.632 77.221 18.578 C 77.171 18.526 77.11 18.484 77.041 18.454 C 76.971 18.425 76.89 18.407 76.801 18.407 C 76.668 18.407 76.557 18.434 76.47 18.491 C 76.384 18.546 76.315 18.62 76.263 18.706 C 76.211 18.795 76.176 18.896 76.159 19.009 C 76.139 19.123 76.129 19.239 76.129 19.352 L 76.129 19.449 C 76.129 19.567 76.139 19.683 76.159 19.797 C 76.179 19.91 76.213 20.011 76.263 20.1 C 76.312 20.189 76.381 20.26 76.468 20.315 C 76.554 20.369 76.665 20.396 76.801 20.396 L 76.794 20.399 Z" fill="currentColor" fill-rule="nonzero"></path>
  <path d="M 79.056 17.174 C 79.056 17.072 79.088 16.989 79.152 16.922 C 79.216 16.855 79.307 16.821 79.428 16.821 C 79.549 16.821 79.641 16.855 79.705 16.922 C 79.769 16.989 79.804 17.072 79.804 17.174 C 79.804 17.275 79.772 17.356 79.705 17.423 C 79.641 17.489 79.547 17.522 79.428 17.522 C 79.31 17.522 79.216 17.489 79.152 17.423 C 79.088 17.356 79.056 17.275 79.056 17.174 Z M 79.757 20.872 L 79.098 20.872 L 79.098 17.939 L 79.757 17.939 L 79.757 20.872 Z" fill="currentColor" fill-rule="nonzero"></path>
  <path d="M 80.905 19.377 C 80.905 19.165 80.937 18.965 80.999 18.785 C 81.061 18.602 81.152 18.444 81.268 18.311 C 81.384 18.178 81.527 18.072 81.695 17.995 C 81.863 17.919 82.053 17.882 82.268 17.882 C 82.483 17.882 82.676 17.919 82.846 17.995 C 83.016 18.072 83.16 18.175 83.276 18.311 C 83.392 18.444 83.481 18.602 83.542 18.785 C 83.604 18.967 83.634 19.165 83.634 19.377 L 83.634 19.434 C 83.634 19.646 83.604 19.846 83.542 20.028 C 83.481 20.211 83.392 20.369 83.276 20.502 C 83.16 20.635 83.016 20.739 82.846 20.813 C 82.678 20.887 82.485 20.927 82.273 20.927 C 82.061 20.927 81.866 20.89 81.695 20.813 C 81.525 20.739 81.384 20.633 81.266 20.502 C 81.15 20.369 81.058 20.211 80.996 20.028 C 80.935 19.846 80.903 19.648 80.903 19.434 L 80.903 19.377 L 80.905 19.377 Z M 81.567 19.434 C 81.567 19.565 81.582 19.69 81.606 19.809 C 81.634 19.927 81.676 20.028 81.735 20.117 C 81.792 20.206 81.866 20.275 81.957 20.325 C 82.046 20.374 82.152 20.401 82.276 20.401 C 82.399 20.401 82.503 20.376 82.592 20.325 C 82.681 20.273 82.755 20.204 82.811 20.117 C 82.868 20.028 82.91 19.927 82.94 19.809 C 82.967 19.69 82.982 19.567 82.982 19.434 L 82.982 19.377 C 82.982 19.246 82.967 19.123 82.94 19.007 C 82.913 18.891 82.868 18.787 82.811 18.701 C 82.755 18.612 82.681 18.543 82.589 18.491 C 82.5 18.439 82.394 18.412 82.271 18.412 C 82.147 18.412 82.041 18.439 81.955 18.491 C 81.866 18.543 81.794 18.615 81.737 18.701 C 81.68 18.79 81.636 18.891 81.609 19.007 C 81.582 19.123 81.569 19.246 81.569 19.377 L 81.569 19.434 L 81.567 19.434 Z" fill="currentColor" fill-rule="nonzero"></path>
  <path d="M 86.53 20.584 C 86.439 20.692 86.323 20.776 86.187 20.835 C 86.051 20.895 85.891 20.924 85.703 20.924 C 85.557 20.924 85.426 20.904 85.308 20.862 C 85.189 20.823 85.088 20.759 85.002 20.67 C 84.918 20.581 84.851 20.47 84.804 20.33 C 84.757 20.191 84.735 20.026 84.735 19.831 L 84.735 17.934 L 85.394 17.934 L 85.394 19.838 C 85.394 19.945 85.407 20.033 85.431 20.103 C 85.456 20.172 85.491 20.228 85.533 20.27 C 85.575 20.312 85.624 20.342 85.681 20.359 C 85.738 20.376 85.797 20.386 85.856 20.386 C 86.027 20.386 86.165 20.357 86.268 20.295 C 86.375 20.233 86.451 20.149 86.506 20.043 L 86.506 17.936 L 87.165 17.936 L 87.165 20.87 L 86.543 20.87 L 86.525 20.584 L 86.53 20.584 Z" fill="currentColor" fill-rule="nonzero"></path>
  <path d="M 90.042 20.073 C 90.042 20.026 90.034 19.982 90.019 19.942 C 90.005 19.903 89.975 19.863 89.928 19.829 C 89.884 19.794 89.819 19.76 89.738 19.73 C 89.656 19.7 89.548 19.671 89.417 19.644 C 89.259 19.611 89.116 19.57 88.987 19.523 C 88.859 19.473 88.748 19.414 88.654 19.345 C 88.563 19.276 88.488 19.194 88.439 19.098 C 88.387 19.004 88.362 18.896 88.362 18.773 C 88.362 18.649 88.39 18.541 88.442 18.432 C 88.493 18.323 88.57 18.23 88.669 18.148 C 88.767 18.067 88.886 18.003 89.027 17.953 C 89.167 17.906 89.323 17.882 89.498 17.882 C 89.681 17.882 89.847 17.906 89.992 17.953 C 90.138 18.003 90.261 18.067 90.363 18.151 C 90.464 18.235 90.54 18.333 90.595 18.447 C 90.649 18.56 90.674 18.684 90.674 18.814 L 90.014 18.814 C 90.014 18.758 90.005 18.703 89.982 18.652 C 89.96 18.597 89.928 18.55 89.884 18.509 C 89.839 18.467 89.787 18.434 89.723 18.41 C 89.659 18.385 89.585 18.373 89.498 18.373 C 89.412 18.373 89.343 18.383 89.281 18.405 C 89.219 18.425 89.167 18.452 89.128 18.486 C 89.088 18.521 89.056 18.558 89.037 18.602 C 89.017 18.647 89.007 18.694 89.007 18.743 C 89.007 18.792 89.017 18.834 89.034 18.874 C 89.051 18.911 89.084 18.945 89.13 18.977 C 89.177 19.007 89.239 19.037 89.316 19.061 C 89.392 19.088 89.491 19.113 89.609 19.138 C 89.78 19.175 89.933 19.217 90.066 19.266 C 90.202 19.315 90.316 19.375 90.407 19.446 C 90.501 19.515 90.57 19.599 90.619 19.695 C 90.669 19.792 90.694 19.905 90.694 20.036 C 90.694 20.167 90.666 20.285 90.61 20.394 C 90.553 20.502 90.474 20.596 90.37 20.675 C 90.266 20.754 90.14 20.816 89.995 20.858 C 89.849 20.9 89.686 20.922 89.506 20.922 C 89.306 20.922 89.128 20.892 88.972 20.835 C 88.817 20.779 88.688 20.705 88.582 20.611 C 88.479 20.52 88.397 20.413 88.345 20.297 C 88.291 20.181 88.266 20.061 88.266 19.94 L 88.906 19.94 C 88.911 20.031 88.933 20.105 88.967 20.167 C 89.005 20.228 89.049 20.278 89.106 20.315 C 89.163 20.352 89.224 20.381 89.296 20.396 C 89.365 20.413 89.439 20.423 89.513 20.423 C 89.686 20.423 89.819 20.391 89.908 20.325 C 90 20.258 90.044 20.172 90.044 20.065 L 90.042 20.073 Z" fill="currentColor" fill-rule="nonzero"></path>
  <path d="M 92.392 10.447 L 89.651 6.892 C 91.052 6.497 92.079 5.216 92.079 3.691 C 92.079 1.89 90.649 0.427 88.861 0.365 L 88.856 0.365 L 88.856 0.36 L 83.093 0.36 C 82.999 0.36 82.92 0.437 82.92 0.533 L 82.92 1.912 C 82.92 2.006 82.997 2.085 83.093 2.085 L 83.597 2.085 C 83.691 2.085 83.77 2.162 83.77 2.258 L 83.77 11.086 C 83.77 11.18 83.846 11.259 83.942 11.259 L 85.323 11.259 C 85.417 11.259 85.496 11.183 85.496 11.086 L 85.496 7.2 C 85.496 7.106 85.572 7.027 85.668 7.027 L 87.58 7.027 L 91.044 11.521 C 91.103 11.595 91.212 11.607 91.286 11.548 L 92.368 10.692 C 92.442 10.632 92.454 10.524 92.395 10.45 L 92.392 10.447 Z M 85.493 5.127 L 85.493 2.253 C 85.493 2.159 85.57 2.08 85.666 2.08 L 88.743 2.08 C 89.632 2.08 90.353 2.801 90.353 3.689 C 90.353 4.577 89.632 5.298 88.743 5.298 L 85.666 5.298 C 85.572 5.298 85.493 5.221 85.493 5.125 L 85.493 5.127 Z" fill="currentColor" fill-rule="nonzero"></path>
  <path d="M 64.701 0.856 L 62.63 8.002 C 62.605 8.093 62.56 8.093 62.536 8.002 L 60.464 0.856 C 60.464 0.856 60.301 0.155 59.595 0.155 C 58.889 0.155 58.726 0.856 58.726 0.856 L 55.765 10.891 C 55.74 10.983 55.794 11.079 55.886 11.104 L 57.222 11.528 C 57.313 11.553 57.412 11.498 57.437 11.407 L 59.548 4.042 C 59.573 3.95 59.617 3.95 59.642 4.042 C 59.642 4.042 61.63 10.428 61.654 10.514 C 61.679 10.6 61.874 11.202 62.583 11.202 C 63.291 11.202 63.484 10.608 63.511 10.516 C 63.538 10.425 65.501 4.044 65.501 4.044 C 65.526 3.953 65.571 3.953 65.595 4.044 L 67.736 11.422 C 67.761 11.513 67.86 11.568 67.951 11.543 L 69.275 11.101 C 69.366 11.076 69.423 10.98 69.396 10.889 L 66.44 0.861 C 66.44 0.861 66.277 0.16 65.571 0.16 C 64.864 0.16 64.701 0.861 64.701 0.861 L 64.701 0.856 Z" fill="currentColor" fill-rule="nonzero"></path>
  <path d="M 81.75 10.857 L 77.063 0.582 C 77.043 0.54 76.776 0 76.221 0 C 75.665 0 75.396 0.538 75.376 0.582 L 70.689 10.857 C 70.65 10.943 70.689 11.047 70.776 11.086 L 72.03 11.659 C 72.117 11.698 72.22 11.659 72.26 11.572 L 73.467 8.927 C 73.507 8.841 73.616 8.769 73.712 8.769 L 78.732 8.769 C 78.826 8.769 78.937 8.841 78.977 8.927 L 80.184 11.572 C 80.224 11.659 80.327 11.698 80.414 11.659 L 81.668 11.086 C 81.755 11.047 81.794 10.943 81.755 10.857 L 81.75 10.857 Z M 77.944 7.045 L 74.497 7.045 C 74.403 7.045 74.356 6.973 74.396 6.887 L 76.149 3.042 C 76.189 2.956 76.253 2.956 76.292 3.042 L 78.046 6.887 C 78.085 6.973 78.041 7.045 77.944 7.045 Z" fill="currentColor" fill-rule="nonzero"></path>
  <path d="M 125.995 0.531 C 125.995 0.437 125.919 0.358 125.822 0.358 L 117.325 0.358 C 117.231 0.358 117.152 0.434 117.152 0.531 L 117.152 1.91 C 117.152 2.004 117.229 2.083 117.325 2.083 L 120.605 2.083 C 120.698 2.083 120.777 2.159 120.777 2.255 L 120.777 11.084 C 120.777 11.178 120.854 11.257 120.95 11.257 L 122.331 11.257 C 122.424 11.257 122.503 11.18 122.503 11.084 L 122.503 2.253 C 122.503 2.159 122.58 2.08 122.676 2.08 L 125.827 2.08 C 125.921 2.08 126 2.004 126 1.907 L 126 0.531 L 125.995 0.531 Z" fill="currentColor" fill-rule="nonzero"></path>
  <path d="M 102.428 11.461 C 102.497 11.54 102.615 11.548 102.692 11.479 L 103.699 10.583 C 103.776 10.514 103.783 10.393 103.717 10.317 L 99.428 5.404 C 99.358 5.325 99.368 5.206 99.447 5.14 L 103.364 1.848 C 103.443 1.782 103.453 1.663 103.386 1.584 L 102.509 0.563 C 102.443 0.484 102.322 0.474 102.243 0.54 L 97.013 4.935 C 96.934 5.002 96.869 4.972 96.869 4.868 L 96.869 0.545 C 96.869 0.442 96.785 0.358 96.682 0.358 L 95.333 0.358 C 95.23 0.358 95.146 0.442 95.146 0.545 L 95.146 11.074 C 95.146 11.178 95.23 11.262 95.333 11.262 L 96.682 11.262 C 96.785 11.262 96.869 11.178 96.869 11.074 L 96.869 7.494 C 96.869 7.39 96.934 7.249 97.013 7.183 L 97.84 6.487 C 97.919 6.42 98.04 6.43 98.109 6.507 L 102.43 11.456 L 102.428 11.461 Z" fill="currentColor" fill-rule="nonzero"></path>
  <path d="M 108.554 2.08 L 114.481 2.08 C 114.574 2.08 114.653 2.004 114.653 1.907 L 114.653 0.531 C 114.653 0.437 114.577 0.358 114.481 0.358 L 105.986 0.358 C 105.892 0.358 105.813 0.434 105.813 0.531 L 105.813 1.91 C 105.813 2.004 105.89 2.083 105.986 2.083 L 106.485 2.083 C 106.579 2.083 106.658 2.159 106.658 2.255 L 106.658 10.378 C 106.658 10.864 107.05 11.257 107.537 11.257 C 107.537 11.257 107.537 11.257 107.539 11.257 L 114.656 11.257 C 114.75 11.257 114.829 11.18 114.829 11.084 L 114.829 9.705 C 114.829 9.611 114.752 9.532 114.656 9.532 L 108.554 9.532 C 108.46 9.532 108.381 9.455 108.381 9.359 L 108.381 6.84 C 108.381 6.746 108.458 6.667 108.554 6.667 L 113.73 6.667 C 113.824 6.667 113.903 6.591 113.903 6.494 L 113.903 5.115 C 113.903 5.021 113.826 4.942 113.73 4.942 L 108.554 4.942 C 108.46 4.942 108.381 4.866 108.381 4.77 L 108.381 2.25 C 108.381 2.157 108.458 2.078 108.554 2.078 L 108.554 2.08 Z" fill="currentColor" fill-rule="nonzero"></path>
  <path d="M 11.191 0.415 C 10.443 0.415 9.939 0.876 9.939 1.562 L 9.939 2.253 L 11.717 2.253 C 11.717 2.253 11.776 8.118 11.71 8.732 C 11.643 9.347 11.485 10.346 10.386 10.872 C 9.438 11.323 9.418 11.753 9.356 12.133 C 9.277 12.626 9.371 12.69 9.729 12.601 C 11.142 12.256 12.648 11.688 13.408 10.292 C 13.821 9.534 13.986 8.713 13.986 7.467 L 13.986 2.253 C 14.739 2.245 15.283 1.764 15.283 1.105 L 15.283 0.415 L 11.189 0.415 L 11.191 0.415 Z" fill="currentColor" fill-rule="nonzero"></path>
  <path d="M 9.213 8.323 C 9.213 8.323 7.786 10.368 5.015 10.368 C 2.245 10.368 0 8.18 0 5.28 C 0 2.381 2.156 0.123 5.015 0.123 C 7.875 0.123 9.178 2.169 9.178 2.169 C 9.178 2.169 8.415 2.983 7.685 2.983 C 7.329 2.983 7.06 2.818 6.751 2.628 C 6.339 2.374 5.87 2.085 5.015 2.085 C 3.39 2.085 2.067 3.519 2.067 5.28 C 2.067 7.042 3.39 8.409 5.015 8.409 C 5.981 8.409 6.433 8.133 6.833 7.889 C 7.117 7.716 7.386 7.55 7.773 7.55 C 8.598 7.55 9.213 8.323 9.213 8.323 Z" fill="currentColor" fill-rule="nonzero"></path>
  <path d="M 28.913 0.531 C 28.913 0.437 28.837 0.358 28.741 0.358 L 20.244 0.358 C 20.15 0.358 20.071 0.434 20.071 0.531 L 20.071 1.91 C 20.071 2.004 20.147 2.083 20.244 2.083 L 23.523 2.083 C 23.617 2.083 23.696 2.159 23.696 2.255 L 23.696 11.084 C 23.696 11.178 23.772 11.257 23.869 11.257 L 25.249 11.257 C 25.343 11.257 25.422 11.18 25.422 11.084 L 25.422 2.253 C 25.422 2.159 25.498 2.08 25.595 2.08 L 28.745 2.08 C 28.839 2.08 28.918 2.004 28.918 1.907 L 28.918 0.531 L 28.913 0.531 Z" fill="currentColor" fill-rule="nonzero"></path>
  <path d="M 44.497 2.08 L 50.424 2.08 C 50.518 2.08 50.597 2.004 50.597 1.907 L 50.597 0.531 C 50.597 0.437 50.52 0.358 50.424 0.358 L 41.929 0.358 C 41.835 0.358 41.756 0.434 41.756 0.531 L 41.756 1.91 C 41.756 2.004 41.833 2.083 41.929 2.083 L 42.428 2.083 C 42.522 2.083 42.601 2.159 42.601 2.255 L 42.601 10.378 C 42.601 10.864 42.993 11.257 43.48 11.257 C 43.48 11.257 43.48 11.257 43.482 11.257 L 50.599 11.257 C 50.693 11.257 50.772 11.18 50.772 11.084 L 50.772 9.705 C 50.772 9.611 50.695 9.532 50.599 9.532 L 44.497 9.532 C 44.403 9.532 44.324 9.455 44.324 9.359 L 44.324 6.84 C 44.324 6.746 44.401 6.667 44.497 6.667 L 49.673 6.667 C 49.767 6.667 49.846 6.591 49.846 6.494 L 49.846 5.115 C 49.846 5.021 49.769 4.942 49.673 4.942 L 44.497 4.942 C 44.403 4.942 44.324 4.866 44.324 4.77 L 44.324 2.25 C 44.324 2.157 44.401 2.078 44.497 2.078 L 44.497 2.08 Z" fill="currentColor" fill-rule="nonzero"></path>
  <path d="M 39.63 0.36 L 38.252 0.36 C 38.159 0.36 38.08 0.437 38.08 0.531 L 38.075 4.947 L 32.452 4.942 L 32.457 0.531 C 32.457 0.437 32.38 0.358 32.284 0.358 L 30.906 0.358 C 30.812 0.358 30.733 0.434 30.733 0.528 L 30.721 11.079 C 30.721 11.173 30.797 11.252 30.894 11.252 L 32.272 11.252 C 32.366 11.252 32.445 11.175 32.445 11.081 L 32.449 6.665 L 38.072 6.67 L 38.067 11.081 C 38.067 11.175 38.144 11.254 38.24 11.254 L 39.618 11.254 C 39.712 11.254 39.791 11.178 39.791 11.084 L 39.803 0.533 C 39.803 0.439 39.727 0.36 39.63 0.36 Z" fill="currentColor" fill-rule="nonzero"></path>
</svg>