<svg xmlns="http://www.w3.org/2000/svg" width="213" height="25" viewBox="0 0 213 25" fill="none">
  <path d="M 67.12 5.82 C 70.458 5.82 73.174 8.54 73.174 11.882 C 73.174 15.224 70.458 17.944 67.12 17.944 C 63.781 17.944 61.065 15.224 61.065 11.882 C 61.065 8.54 63.781 5.82 67.12 5.82 Z M 67.12 2.874 C 62.151 2.874 58.123 6.908 58.123 11.882 C 58.123 16.856 62.151 20.89 67.12 20.89 C 72.088 20.89 76.116 16.856 76.116 11.882 C 76.116 6.908 72.088 2.874 67.12 2.874 Z" fill="currentColor" fill-rule="nonzero"></path>
  <path d="M 92.052 3.396 L 92.052 19.113 C 92.052 19.806 91.49 20.369 90.797 20.369 L 89.729 20.369 L 80.683 8.548 L 80.761 19.113 C 80.761 19.806 80.199 20.369 79.507 20.369 L 77.812 20.369 L 77.812 4.652 C 77.812 3.958 78.373 3.396 79.066 3.396 L 80.134 3.396 L 89.181 15.216 L 89.102 4.652 C 89.102 3.958 89.664 3.396 90.356 3.396 L 92.052 3.396 Z" fill="currentColor" fill-rule="nonzero"></path>
  <path d="M 98.322 17.634 C 97.849 17.634 97.438 17.896 97.223 18.282 L 97.223 12.95 L 102.859 12.95 C 103.551 12.95 104.113 12.388 104.113 11.694 L 104.113 10.337 L 98.32 10.337 C 97.848 10.337 97.436 10.598 97.222 10.985 L 97.222 6.01 L 103.243 6.01 C 103.935 6.01 104.497 5.447 104.497 4.754 L 104.497 3.396 L 95.459 3.396 C 94.766 3.396 94.205 3.958 94.205 4.652 L 94.205 20.248 L 103.606 20.248 C 104.299 20.248 104.86 19.685 104.86 18.992 L 104.86 17.634 L 98.32 17.634 L 98.322 17.634 Z" fill="currentColor" fill-rule="nonzero"></path>
  <path d="M 37.569 2.874 C 32.509 2.874 28.818 6.871 28.818 11.94 C 28.818 17.009 32.509 20.89 37.569 20.89 C 40.382 20.89 43.041 19.625 44.796 17.427 C 44.604 17.248 44.12 16.211 42.49 16.211 C 40.953 16.211 40.608 17.752 37.569 17.752 C 34.53 17.752 32.12 15.222 32.12 11.94 C 32.12 8.658 34.59 6.009 37.569 6.009 C 40.284 6.009 40.935 7.625 42.33 7.625 C 43.725 7.625 44.54 6.508 44.731 6.332 C 42.973 4.133 40.382 2.874 37.569 2.874 Z" fill="currentColor" fill-rule="nonzero"></path>
  <path d="M 55.457 3.396 L 48.346 3.396 C 47.146 3.396 46.302 4.117 46.302 5.267 L 46.302 6.316 L 49.474 6.316 C 49.474 6.316 49.593 17.043 49.458 18.2 L 49.456 18.204 C 49.41 19.087 49.03 21.207 46.993 22.162 C 45.321 22.949 45.302 23.698 45.217 24.861 C 45.241 24.945 45.275 24.998 45.323 25 L 45.334 25 C 45.334 25 45.348 25 45.353 24.996 C 45.414 24.981 47.012 24.587 47.246 24.49 L 47.241 24.484 C 48.743 24.016 51.043 22.984 52.138 20.851 C 52.138 20.851 53.167 19.268 53.146 15.872 L 53.146 6.315 L 53.294 6.315 C 54.499 6.315 55.457 5.591 55.457 4.443 L 55.457 3.395 L 55.457 3.396 Z" fill="currentColor" fill-rule="nonzero"></path>
  <path d="M 3.196 3.916 C 1.188 6.099 0.126 8.843 0.011 11.617 L 5.448 9.362 L 3.196 3.917 L 3.196 3.916 Z" fill="currentColor" fill-rule="nonzero"></path>
  <path d="M 3.911 3.201 L 9.349 5.456 L 11.602 0.011 C 8.83 0.126 6.092 1.189 3.911 3.201 Z" fill="currentColor" fill-rule="nonzero"></path>
  <path d="M 12.615 0.011 L 14.867 5.456 L 20.304 3.201 C 18.125 1.189 15.385 0.126 12.615 0.011 Z" fill="currentColor" fill-rule="nonzero"></path>
  <path d="M 12.615 0.011 C 12.278 -0.004 11.94 -0.004 11.602 0.011 L 9.35 5.456 L 14.867 5.456 L 12.615 0.011 Z" fill="currentColor" fill-rule="nonzero"></path>
  <path d="M 5.448 9.362 L 0.011 11.617 C -0.004 11.954 -0.004 12.292 0.011 12.63 L 5.448 14.885 L 5.448 9.362 Z" fill="currentColor" fill-rule="nonzero"></path>
  <path d="M 9.35 5.456 L 3.912 3.201 C 3.664 3.43 3.425 3.669 3.196 3.917 L 5.448 9.362 L 9.35 5.456 Z" fill="currentColor" fill-rule="nonzero"></path>
  <path d="M 5.448 14.885 L 0.011 12.63 C 0.126 15.405 1.188 18.147 3.196 20.331 L 5.448 14.885 Z" fill="currentColor" fill-rule="nonzero"></path>
  <path d="M 18.768 9.362 L 21.02 3.917 C 20.791 3.669 20.553 3.43 20.304 3.201 L 14.867 5.456 L 18.768 9.362 Z" fill="currentColor" fill-rule="nonzero"></path>
  <path d="M 18.768 9.362 L 24.206 11.617 C 24.091 8.842 23.029 6.099 21.021 3.916 L 18.769 9.361 L 18.768 9.362 Z" fill="currentColor" fill-rule="nonzero"></path>
  <path d="M 5.448 14.885 L 3.197 20.33 C 3.426 20.578 3.664 20.817 3.912 21.046 L 9.35 18.791 L 5.448 14.885 Z" fill="currentColor" fill-rule="nonzero"></path>
  <path d="M 21.021 20.331 C 23.029 18.147 24.091 15.405 24.206 12.63 L 18.769 14.885 L 21.021 20.33 L 21.021 20.331 Z" fill="currentColor" fill-rule="nonzero"></path>
  <path d="M 9.35 18.791 L 3.912 21.046 C 6.093 23.058 8.832 24.121 11.603 24.236 L 9.351 18.791 L 9.35 18.791 Z" fill="currentColor" fill-rule="nonzero"></path>
  <path d="M 24.206 11.617 L 18.768 9.362 L 18.769 14.885 L 24.206 12.63 C 24.221 12.293 24.221 11.955 24.206 11.617 Z" fill="currentColor" fill-rule="nonzero"></path>
  <path d="M 11.603 24.236 C 11.94 24.251 12.277 24.251 12.615 24.236 L 14.867 18.791 L 9.351 18.791 L 11.603 24.236 Z" fill="currentColor" fill-rule="nonzero"></path>
  <path d="M 14.867 18.791 L 12.615 24.236 C 15.386 24.121 18.125 23.058 20.306 21.046 L 14.868 18.791 L 14.867 18.791 Z" fill="currentColor" fill-rule="nonzero"></path>
  <path d="M 14.868 18.791 L 20.306 21.046 C 20.554 20.817 20.792 20.578 21.021 20.33 L 18.769 14.885 L 14.868 18.791 Z" fill="currentColor" fill-rule="nonzero"></path>
  <path d="M 208.131 20.219 C 207.109 20.219 206.192 20.049 205.381 19.707 C 204.569 19.35 203.928 18.862 203.458 18.245 C 202.987 17.611 202.727 16.888 202.679 16.075 L 204.967 16.075 C 205.032 16.742 205.34 17.286 205.892 17.709 C 206.46 18.131 207.198 18.342 208.107 18.342 C 208.951 18.342 209.616 18.155 210.103 17.782 C 210.59 17.408 210.833 16.937 210.833 16.368 C 210.833 15.783 210.574 15.352 210.055 15.076 C 209.535 14.784 208.732 14.499 207.645 14.223 C 206.655 13.963 205.843 13.703 205.21 13.443 C 204.594 13.167 204.058 12.769 203.604 12.249 C 203.166 11.712 202.946 11.014 202.946 10.152 C 202.946 9.47 203.149 8.844 203.555 8.276 C 203.961 7.707 204.537 7.26 205.283 6.935 C 206.03 6.594 206.882 6.423 207.839 6.423 C 209.316 6.423 210.509 6.797 211.418 7.544 C 212.327 8.292 212.813 9.316 212.878 10.616 L 210.663 10.616 C 210.614 9.917 210.33 9.356 209.811 8.934 C 209.308 8.511 208.626 8.3 207.766 8.3 C 206.971 8.3 206.338 8.471 205.868 8.812 C 205.397 9.153 205.162 9.6 205.162 10.152 C 205.162 10.591 205.3 10.957 205.575 11.249 C 205.868 11.526 206.225 11.753 206.647 11.932 C 207.085 12.094 207.685 12.281 208.448 12.492 C 209.405 12.752 210.184 13.012 210.785 13.272 C 211.385 13.516 211.896 13.89 212.318 14.394 C 212.757 14.897 212.984 15.555 213 16.368 C 213 17.099 212.797 17.757 212.391 18.342 C 211.986 18.927 211.41 19.39 210.663 19.732 C 209.933 20.057 209.089 20.219 208.131 20.219 Z" fill="currentColor" fill-rule="nonzero"></path>
  <path d="M 195.9 20.219 C 194.878 20.219 193.961 20.049 193.15 19.707 C 192.338 19.35 191.697 18.862 191.227 18.245 C 190.756 17.611 190.496 16.888 190.448 16.075 L 192.736 16.075 C 192.801 16.742 193.109 17.286 193.661 17.709 C 194.229 18.131 194.967 18.342 195.876 18.342 C 196.72 18.342 197.385 18.155 197.872 17.782 C 198.359 17.408 198.602 16.937 198.602 16.368 C 198.602 15.783 198.343 15.352 197.823 15.076 C 197.304 14.784 196.501 14.499 195.413 14.223 C 194.423 13.963 193.612 13.703 192.979 13.443 C 192.362 13.167 191.827 12.769 191.373 12.249 C 190.934 11.712 190.715 11.014 190.715 10.152 C 190.715 9.47 190.918 8.844 191.324 8.276 C 191.73 7.707 192.306 7.26 193.052 6.935 C 193.799 6.594 194.651 6.423 195.608 6.423 C 197.085 6.423 198.278 6.797 199.187 7.544 C 200.095 8.292 200.582 9.316 200.647 10.616 L 198.432 10.616 C 198.383 9.917 198.099 9.356 197.58 8.934 C 197.077 8.511 196.395 8.3 195.535 8.3 C 194.74 8.3 194.107 8.471 193.636 8.812 C 193.166 9.153 192.93 9.6 192.93 10.152 C 192.93 10.591 193.068 10.957 193.344 11.249 C 193.636 11.526 193.993 11.753 194.415 11.932 C 194.854 12.094 195.454 12.281 196.217 12.492 C 197.174 12.752 197.953 13.012 198.554 13.272 C 199.154 13.516 199.665 13.89 200.087 14.394 C 200.525 14.897 200.753 15.555 200.769 16.368 C 200.769 17.099 200.566 17.757 200.16 18.342 C 199.755 18.927 199.178 19.39 198.432 19.732 C 197.702 20.057 196.858 20.219 195.9 20.219 Z" fill="currentColor" fill-rule="nonzero"></path>
  <path d="M 188.741 12.809 C 188.741 13.232 188.716 13.679 188.668 14.15 L 178.006 14.15 C 178.087 15.466 178.533 16.498 179.344 17.245 C 180.172 17.977 181.17 18.342 182.339 18.342 C 183.296 18.342 184.091 18.123 184.724 17.684 C 185.373 17.229 185.828 16.628 186.087 15.88 L 188.473 15.88 C 188.116 17.164 187.402 18.212 186.331 19.025 C 185.26 19.821 183.929 20.219 182.339 20.219 C 181.073 20.219 179.937 19.935 178.931 19.366 C 177.941 18.797 177.162 17.993 176.594 16.953 C 176.026 15.897 175.742 14.678 175.742 13.297 C 175.742 11.916 176.018 10.705 176.569 9.665 C 177.121 8.625 177.892 7.829 178.882 7.276 C 179.888 6.707 181.04 6.423 182.339 6.423 C 183.604 6.423 184.724 6.699 185.698 7.252 C 186.672 7.804 187.418 8.568 187.937 9.543 C 188.473 10.502 188.741 11.591 188.741 12.809 Z M 186.452 12.346 C 186.452 11.501 186.266 10.778 185.893 10.177 C 185.519 9.559 185.008 9.096 184.359 8.787 C 183.726 8.462 183.02 8.3 182.241 8.3 C 181.121 8.3 180.164 8.657 179.369 9.372 C 178.59 10.087 178.144 11.079 178.03 12.346 L 186.452 12.346 Z" fill="currentColor" fill-rule="nonzero"></path>
  <path d="M 167.985 6.399 C 169.608 6.399 170.922 6.894 171.929 7.886 C 172.935 8.861 173.438 10.274 173.438 12.127 L 173.438 20 L 171.247 20 L 171.247 12.444 C 171.247 11.111 170.914 10.096 170.249 9.397 C 169.584 8.682 168.675 8.324 167.523 8.324 C 166.354 8.324 165.421 8.69 164.723 9.421 C 164.042 10.152 163.701 11.217 163.701 12.614 L 163.701 20 L 161.486 20 L 161.486 6.642 L 163.701 6.642 L 163.701 8.544 C 164.139 7.861 164.731 7.333 165.478 6.959 C 166.24 6.586 167.076 6.399 167.985 6.399 Z" fill="currentColor" fill-rule="nonzero"></path>
  <path d="M 157.126 4.473 C 156.704 4.473 156.347 4.327 156.055 4.034 C 155.763 3.742 155.617 3.384 155.617 2.962 C 155.617 2.539 155.763 2.182 156.055 1.889 C 156.347 1.597 156.704 1.451 157.126 1.451 C 157.532 1.451 157.872 1.597 158.148 1.889 C 158.44 2.182 158.587 2.539 158.587 2.962 C 158.587 3.384 158.44 3.742 158.148 4.034 C 157.872 4.327 157.532 4.473 157.126 4.473 Z M 158.197 6.642 L 158.197 20 L 155.982 20 L 155.982 6.642 L 158.197 6.642 Z" fill="currentColor" fill-rule="nonzero"></path>
  <path d="M 148.473 20.219 C 147.451 20.219 146.534 20.049 145.722 19.707 C 144.911 19.35 144.27 18.862 143.799 18.245 C 143.329 17.611 143.069 16.888 143.02 16.075 L 145.309 16.075 C 145.373 16.742 145.682 17.286 146.234 17.709 C 146.802 18.131 147.54 18.342 148.449 18.342 C 149.293 18.342 149.958 18.155 150.445 17.782 C 150.932 17.408 151.175 16.937 151.175 16.368 C 151.175 15.783 150.915 15.352 150.396 15.076 C 149.877 14.784 149.074 14.499 147.986 14.223 C 146.996 13.963 146.185 13.703 145.552 13.443 C 144.935 13.167 144.4 12.769 143.945 12.249 C 143.507 11.712 143.288 11.014 143.288 10.152 C 143.288 9.47 143.491 8.844 143.897 8.276 C 144.302 7.707 144.879 7.26 145.625 6.935 C 146.372 6.594 147.224 6.423 148.181 6.423 C 149.658 6.423 150.851 6.797 151.759 7.544 C 152.668 8.292 153.155 9.316 153.22 10.616 L 151.005 10.616 C 150.956 9.917 150.672 9.356 150.153 8.934 C 149.65 8.511 148.968 8.3 148.108 8.3 C 147.313 8.3 146.68 8.471 146.209 8.812 C 145.739 9.153 145.503 9.6 145.503 10.152 C 145.503 10.591 145.641 10.957 145.917 11.249 C 146.209 11.526 146.566 11.753 146.988 11.932 C 147.426 12.094 148.027 12.281 148.79 12.492 C 149.747 12.752 150.526 13.012 151.126 13.272 C 151.727 13.516 152.238 13.89 152.66 14.394 C 153.098 14.897 153.325 15.555 153.342 16.368 C 153.342 17.099 153.139 17.757 152.733 18.342 C 152.327 18.927 151.751 19.39 151.005 19.732 C 150.274 20.057 149.431 20.219 148.473 20.219 Z" fill="currentColor" fill-rule="nonzero"></path>
  <path d="M 140.497 6.642 L 140.497 20 L 138.282 20 L 138.282 18.025 C 137.86 18.708 137.268 19.244 136.505 19.634 C 135.759 20.008 134.931 20.195 134.022 20.195 C 132.984 20.195 132.05 19.984 131.223 19.561 C 130.395 19.122 129.738 18.472 129.251 17.611 C 128.78 16.75 128.545 15.702 128.545 14.467 L 128.545 6.642 L 130.736 6.642 L 130.736 14.174 C 130.736 15.49 131.069 16.506 131.734 17.221 C 132.399 17.92 133.308 18.269 134.46 18.269 C 135.645 18.269 136.578 17.904 137.26 17.172 C 137.941 16.441 138.282 15.377 138.282 13.979 L 138.282 6.642 L 140.497 6.642 Z" fill="currentColor" fill-rule="nonzero"></path>
  <path d="M 122.72 11.249 C 123.337 11.347 123.897 11.599 124.4 12.005 C 124.919 12.411 125.325 12.915 125.617 13.516 C 125.925 14.117 126.08 14.759 126.08 15.442 C 126.08 16.303 125.861 17.083 125.422 17.782 C 124.984 18.464 124.343 19.009 123.499 19.415 C 122.672 19.805 121.69 20 120.554 20 L 114.225 20 L 114.225 3.011 L 120.31 3.011 C 121.463 3.011 122.444 3.206 123.256 3.596 C 124.067 3.969 124.676 4.481 125.082 5.131 C 125.487 5.781 125.69 6.512 125.69 7.325 C 125.69 8.332 125.414 9.169 124.863 9.836 C 124.327 10.486 123.613 10.957 122.72 11.249 Z M 116.44 10.347 L 120.164 10.347 C 121.203 10.347 122.006 10.104 122.574 9.616 C 123.142 9.129 123.426 8.454 123.426 7.593 C 123.426 6.732 123.142 6.057 122.574 5.57 C 122.006 5.082 121.187 4.839 120.116 4.839 L 116.44 4.839 L 116.44 10.347 Z M 120.359 18.172 C 121.463 18.172 122.323 17.912 122.939 17.392 C 123.556 16.872 123.864 16.149 123.864 15.222 C 123.864 14.28 123.54 13.54 122.891 13.004 C 122.242 12.452 121.373 12.175 120.286 12.175 L 116.44 12.175 L 116.44 18.172 L 120.359 18.172 Z" fill="currentColor" fill-rule="nonzero"></path>
</svg>