<svg xmlns="http://www.w3.org/2000/svg" width="188" height="25.054" viewBox="0 0 188 25.054" fill="none">
  <path d="M 67.353 5.833 C 70.703 5.833 73.428 8.558 73.428 11.907 C 73.428 15.257 70.703 17.982 67.353 17.982 C 64.003 17.982 61.277 15.257 61.277 11.907 C 61.277 8.558 64.003 5.833 67.353 5.833 Z M 67.353 2.88 C 62.367 2.88 58.324 6.923 58.324 11.907 C 58.324 16.892 62.367 20.935 67.353 20.935 C 72.338 20.935 76.381 16.892 76.381 11.907 C 76.381 6.923 72.338 2.88 67.353 2.88 Z" fill="currentColor" fill-rule="nonzero"></path>
  <path d="M 92.371 3.403 L 92.371 19.154 C 92.371 19.849 91.807 20.412 91.112 20.412 L 90.041 20.412 L 80.963 8.567 L 81.042 19.154 C 81.042 19.849 80.478 20.412 79.783 20.412 L 78.082 20.412 L 78.082 4.662 C 78.082 3.967 78.646 3.403 79.341 3.403 L 80.412 3.403 L 89.49 15.249 L 89.411 4.662 C 89.411 3.967 89.975 3.403 90.67 3.403 L 92.371 3.403 Z" fill="currentColor" fill-rule="nonzero"></path>
  <path d="M 98.663 17.672 C 98.189 17.672 97.776 17.934 97.561 18.322 L 97.561 12.978 L 103.216 12.978 C 103.911 12.978 104.475 12.414 104.475 11.72 L 104.475 10.359 L 98.662 10.359 C 98.188 10.359 97.775 10.621 97.56 11.009 L 97.56 6.023 L 103.601 6.023 C 104.296 6.023 104.86 5.459 104.86 4.764 L 104.86 3.403 L 95.791 3.403 C 95.096 3.403 94.532 3.967 94.532 4.662 L 94.532 20.291 L 103.966 20.291 C 104.661 20.291 105.225 19.727 105.225 19.032 L 105.225 17.672 L 98.662 17.672 L 98.663 17.672 Z" fill="currentColor" fill-rule="nonzero"></path>
  <path d="M 37.699 2.88 C 32.622 2.88 28.918 6.886 28.918 11.966 C 28.918 17.046 32.622 20.935 37.699 20.935 C 40.522 20.935 43.19 19.667 44.951 17.465 C 44.759 17.285 44.273 16.246 42.638 16.246 C 41.096 16.246 40.749 17.79 37.699 17.79 C 34.65 17.79 32.232 15.255 32.232 11.966 C 32.232 8.677 34.71 6.022 37.699 6.022 C 40.424 6.022 41.077 7.642 42.477 7.642 C 43.877 7.642 44.695 6.522 44.887 6.345 C 43.122 4.142 40.522 2.88 37.699 2.88 Z" fill="currentColor" fill-rule="nonzero"></path>
  <path d="M 55.65 3.403 L 48.513 3.403 C 47.309 3.403 46.463 4.126 46.463 5.278 L 46.463 6.33 L 49.646 6.33 C 49.646 6.33 49.765 17.08 49.63 18.239 L 49.628 18.243 C 49.581 19.128 49.2 21.252 47.156 22.209 C 45.478 22.998 45.459 23.749 45.374 24.914 C 45.398 24.999 45.432 25.051 45.481 25.054 L 45.492 25.054 C 45.492 25.054 45.505 25.054 45.51 25.05 C 45.572 25.034 47.176 24.639 47.41 24.542 L 47.405 24.536 C 48.912 24.067 51.22 23.033 52.319 20.896 C 52.319 20.896 53.351 19.309 53.331 15.906 L 53.331 6.329 L 53.479 6.329 C 54.688 6.329 55.65 5.603 55.65 4.453 L 55.65 3.402 L 55.65 3.403 Z" fill="currentColor" fill-rule="nonzero"></path>
  <path d="M 3.207 3.924 C 1.192 6.112 0.126 8.862 0.011 11.642 L 5.467 9.382 L 3.207 3.926 L 3.207 3.924 Z" fill="currentColor" fill-rule="nonzero"></path>
  <path d="M 3.925 3.207 L 9.381 5.467 L 11.642 0.011 C 8.861 0.126 6.113 1.192 3.925 3.207 Z" fill="currentColor" fill-rule="nonzero"></path>
  <path d="M 12.659 0.011 L 14.919 5.467 L 20.375 3.207 C 18.188 1.192 15.439 0.126 12.659 0.011 Z" fill="currentColor" fill-rule="nonzero"></path>
  <path d="M 12.659 0.011 C 12.321 -0.004 11.981 -0.004 11.642 0.011 L 9.383 5.467 L 14.919 5.467 L 12.659 0.011 Z" fill="currentColor" fill-rule="nonzero"></path>
  <path d="M 5.467 9.382 L 0.011 11.642 C -0.004 11.979 -0.004 12.318 0.011 12.657 L 5.467 14.917 L 5.467 9.382 Z" fill="currentColor" fill-rule="nonzero"></path>
  <path d="M 9.382 5.467 L 3.926 3.207 C 3.677 3.437 3.437 3.676 3.207 3.926 L 5.467 9.382 L 9.382 5.467 Z" fill="currentColor" fill-rule="nonzero"></path>
  <path d="M 5.467 14.917 L 0.011 12.657 C 0.126 15.438 1.192 18.186 3.207 20.375 L 5.467 14.918 L 5.467 14.917 Z" fill="currentColor" fill-rule="nonzero"></path>
  <path d="M 18.833 9.382 L 21.093 3.925 C 20.864 3.676 20.624 3.437 20.375 3.207 L 14.919 5.467 L 18.833 9.382 Z" fill="currentColor" fill-rule="nonzero"></path>
  <path d="M 18.833 9.382 L 24.29 11.642 C 24.175 8.861 23.109 6.112 21.094 3.924 L 18.834 9.381 L 18.833 9.382 Z" fill="currentColor" fill-rule="nonzero"></path>
  <path d="M 5.467 14.917 L 3.208 20.373 C 3.438 20.622 3.677 20.862 3.926 21.091 L 9.382 18.832 L 5.467 14.917 Z" fill="currentColor" fill-rule="nonzero"></path>
  <path d="M 21.094 20.375 C 23.109 18.186 24.175 15.438 24.29 12.657 L 18.834 14.917 L 21.094 20.373 L 21.094 20.375 Z" fill="currentColor" fill-rule="nonzero"></path>
  <path d="M 9.382 18.832 L 3.926 21.091 C 6.114 23.107 8.862 24.173 11.643 24.288 L 9.384 18.832 L 9.382 18.832 Z" fill="currentColor" fill-rule="nonzero"></path>
  <path d="M 24.29 11.642 L 18.833 9.382 L 18.834 14.917 L 24.29 12.657 C 24.305 12.319 24.305 11.981 24.29 11.642 Z" fill="currentColor" fill-rule="nonzero"></path>
  <path d="M 11.643 24.288 C 11.981 24.303 12.319 24.303 12.658 24.288 L 14.918 18.832 L 9.384 18.832 L 11.643 24.288 Z" fill="currentColor" fill-rule="nonzero"></path>
  <path d="M 14.918 18.832 L 12.658 24.288 C 15.439 24.173 18.188 23.107 20.376 21.091 L 14.92 18.832 L 14.918 18.832 Z" fill="currentColor" fill-rule="nonzero"></path>
  <path d="M 14.919 18.832 L 20.375 21.091 C 20.624 20.862 20.864 20.622 21.094 20.373 L 18.834 14.917 L 14.919 18.832 Z" fill="currentColor" fill-rule="nonzero"></path>
  <path d="M 182.528 8.081 C 184.157 8.081 185.476 8.578 186.486 9.571 C 187.495 10.548 188 11.965 188 13.821 L 188 21.711 L 185.802 21.711 L 185.802 14.139 C 185.802 12.804 185.468 11.786 184.8 11.085 C 184.132 10.369 183.22 10.011 182.064 10.011 C 180.892 10.011 179.955 10.377 179.255 11.11 C 178.571 11.843 178.229 12.909 178.229 14.31 L 178.229 21.711 L 176.006 21.711 L 176.006 8.325 L 178.229 8.325 L 178.229 10.231 C 178.669 9.547 179.263 9.017 180.012 8.643 C 180.778 8.268 181.616 8.081 182.528 8.081 Z" fill="currentColor" fill-rule="nonzero"></path>
  <path d="M 171.632 6.151 C 171.208 6.151 170.85 6.005 170.557 5.712 C 170.264 5.418 170.117 5.06 170.117 4.637 C 170.117 4.213 170.264 3.855 170.557 3.562 C 170.85 3.269 171.208 3.122 171.632 3.122 C 172.039 3.122 172.381 3.269 172.658 3.562 C 172.951 3.855 173.097 4.213 173.097 4.637 C 173.097 5.06 172.951 5.418 172.658 5.712 C 172.381 6.005 172.039 6.151 171.632 6.151 Z M 172.706 8.325 L 172.706 21.711 L 170.483 21.711 L 170.483 8.325 L 172.706 8.325 Z" fill="currentColor" fill-rule="nonzero"></path>
  <path d="M 161.903 8.081 C 162.945 8.081 163.873 8.301 164.688 8.74 C 165.502 9.164 166.145 9.807 166.617 10.67 C 167.09 11.533 167.326 12.584 167.326 13.821 L 167.326 21.711 L 165.127 21.711 L 165.127 14.139 C 165.127 12.804 164.793 11.786 164.126 11.085 C 163.474 10.369 162.587 10.011 161.463 10.011 C 160.307 10.011 159.387 10.385 158.703 11.134 C 158.019 11.867 157.677 12.934 157.677 14.334 L 157.677 21.711 L 155.479 21.711 L 155.479 14.139 C 155.479 12.804 155.145 11.786 154.477 11.085 C 153.826 10.369 152.938 10.011 151.814 10.011 C 150.658 10.011 149.738 10.385 149.054 11.134 C 148.37 11.867 148.028 12.934 148.028 14.334 L 148.028 21.711 L 145.805 21.711 L 145.805 8.325 L 148.028 8.325 L 148.028 10.255 C 148.468 9.555 149.054 9.017 149.787 8.643 C 150.536 8.268 151.359 8.081 152.254 8.081 C 153.378 8.081 154.371 8.333 155.234 8.838 C 156.097 9.343 156.741 10.084 157.164 11.061 C 157.539 10.117 158.157 9.384 159.02 8.863 C 159.884 8.342 160.844 8.081 161.903 8.081 Z" fill="currentColor" fill-rule="nonzero"></path>
  <path d="M 128.956 14.969 C 128.956 13.601 129.233 12.405 129.787 11.379 C 130.34 10.336 131.097 9.53 132.058 8.96 C 133.035 8.39 134.126 8.105 135.332 8.105 C 136.374 8.105 137.343 8.35 138.238 8.838 C 139.134 9.31 139.818 9.937 140.29 10.719 L 140.29 3.635 L 142.538 3.635 L 142.538 21.711 L 140.29 21.711 L 140.29 19.195 C 139.851 19.993 139.199 20.653 138.336 21.174 C 137.473 21.679 136.463 21.931 135.307 21.931 C 134.118 21.931 133.035 21.638 132.058 21.052 C 131.097 20.466 130.34 19.643 129.787 18.585 C 129.233 17.526 128.956 16.321 128.956 14.969 Z M 140.29 14.994 C 140.29 13.984 140.087 13.105 139.68 12.356 C 139.272 11.607 138.719 11.037 138.018 10.646 C 137.335 10.239 136.577 10.035 135.747 10.035 C 134.916 10.035 134.159 10.231 133.475 10.621 C 132.791 11.012 132.246 11.582 131.838 12.331 C 131.431 13.08 131.228 13.96 131.228 14.969 C 131.228 15.995 131.431 16.891 131.838 17.656 C 132.246 18.405 132.791 18.984 133.475 19.391 C 134.159 19.782 134.916 19.977 135.747 19.977 C 136.577 19.977 137.335 19.782 138.018 19.391 C 138.719 18.984 139.272 18.405 139.68 17.656 C 140.087 16.891 140.29 16.003 140.29 14.994 Z" fill="currentColor" fill-rule="nonzero"></path>
  <path d="M 123.879 17.925 L 116.454 17.925 L 115.086 21.711 L 112.741 21.711 L 118.896 4.783 L 121.461 4.783 L 127.592 21.711 L 125.247 21.711 L 123.879 17.925 Z M 123.244 16.117 L 120.166 7.519 L 117.089 16.117 L 123.244 16.117 Z" fill="currentColor" fill-rule="nonzero"></path>
</svg>