<svg width="188" height="26" viewBox="0 0 188 26" fill="none" xmlns="http://www.w3.org/2000/svg">
<path d="M67.3526 6.30614C70.7026 6.30614 73.4281 9.03127 73.4281 12.3809C73.4281 15.7305 70.7026 18.4556 67.3526 18.4556C64.0026 18.4556 61.2772 15.7305 61.2772 12.3809C61.2772 9.03127 64.0026 6.30614 67.3526 6.30614ZM67.3526 3.35381C62.3671 3.35381 58.3245 7.39595 58.3245 12.3809C58.3245 17.3658 62.3671 21.408 67.3526 21.408C72.3382 21.408 76.3808 17.3658 76.3808 12.3809C76.3808 7.39595 72.3382 3.35381 67.3526 3.35381Z" fill="#1E192A"></path>
<path d="M92.3713 3.87657V19.6272C92.3713 20.3221 91.8075 20.8859 91.1125 20.8859H90.0407L80.9628 9.04011L81.0418 19.6272C81.0418 20.3221 80.478 20.8859 79.7829 20.8859H78.0818V5.13526C78.0818 4.44031 78.6456 3.87657 79.3407 3.87657H80.4124L89.4903 15.7223L89.4113 5.13526C89.4113 4.44031 89.9751 3.87657 90.6702 3.87657H92.3713Z" fill="#1E192A"></path>
<path d="M98.663 18.1449C98.1891 18.1449 97.776 18.4074 97.5609 18.7949V13.4516H103.216C103.911 13.4516 104.475 12.8878 104.475 12.1929V10.8322H98.6618C98.1879 10.8322 97.7748 11.0946 97.5597 11.4822V6.496H103.601C104.296 6.496 104.86 5.93227 104.86 5.23731V3.87657H95.7906C95.0955 3.87657 94.5317 4.44031 94.5317 5.13526V20.7644H103.966C104.661 20.7644 105.225 20.2006 105.225 19.5057V18.1449H98.6618H98.663Z" fill="#1E192A"></path>
<path d="M37.6994 3.35381C32.6216 3.35381 28.918 7.3595 28.918 12.4392C28.918 17.5189 32.6216 21.408 37.6994 21.408C40.5221 21.408 43.1904 20.1408 44.9511 17.9381C44.7591 17.7582 44.2731 16.7195 42.6376 16.7195C41.0956 16.7195 40.7493 18.2637 37.6994 18.2637C34.6496 18.2637 32.2315 15.7281 32.2315 12.4392C32.2315 9.15033 34.7103 6.49567 37.6994 6.49567C40.4237 6.49567 41.0774 8.11519 42.4772 8.11519C43.877 8.11519 44.6947 6.99501 44.8867 6.81884C43.1224 4.61493 40.5221 3.35381 37.6994 3.35381Z" fill="#1E192A"></path>
<path d="M55.65 3.87656H48.5134C47.3094 3.87656 46.4626 4.59946 46.4626 5.75123V6.80338H49.6457C49.6457 6.80338 49.7648 17.5532 49.63 18.7123L49.6275 18.716C49.5814 19.6016 49.1999 21.7254 47.1563 22.6828C45.4785 23.4713 45.459 24.2221 45.374 25.3872C45.3983 25.4723 45.4323 25.5245 45.4809 25.527H45.4918C45.4918 25.527 45.5052 25.527 45.5101 25.5233C45.572 25.5075 47.1758 25.1127 47.4102 25.0155L47.4054 25.0094C48.9119 24.5404 51.2203 23.5065 52.3186 21.3694C52.3186 21.3694 53.3513 19.7827 53.3307 16.3796V6.80216H53.4789C54.6878 6.80216 55.65 6.07684 55.65 4.92628V3.87535V3.87656Z" fill="#1E192A"></path>
<path d="M3.20745 4.3977C1.19185 6.58583 0.126341 9.33526 0.0109212 12.1151L5.46726 9.85526L3.20745 4.39892V4.3977Z" fill="#F152D9"></path>
<path d="M3.92476 3.68085L9.3811 5.94066L11.6421 0.484323C8.8611 0.599743 6.11289 1.66525 3.92476 3.68085Z" fill="#F268DD"></path>
<path d="M12.6588 0.484323L14.9186 5.94066L20.375 3.68085C18.1881 1.66525 15.4386 0.599743 12.6588 0.484323Z" fill="#ED27CF"></path>
<path d="M12.6588 0.484323C12.3211 0.469744 11.9811 0.469744 11.6421 0.484323L9.38291 5.94058L14.9186 5.94066L12.6588 0.484323Z" fill="#F693E7"></path>
<path d="M5.46726 9.85526L0.0109212 12.1151C-0.00365817 12.4528 -0.00363151 12.7918 0.0109479 13.1308L5.46728 15.3906L5.46726 9.85526Z" fill="#F47DE2"></path>
<path d="M9.38229 5.94065L3.92595 3.68084C3.67689 3.91047 3.43708 4.14985 3.20745 4.39892L5.46726 9.85526L9.38229 5.94065Z" fill="#F8A9EC"></path>
<path d="M5.46728 15.3906L0.0109479 13.1308C0.126368 15.9118 1.19185 18.6598 3.20745 20.8479L5.46726 15.3916L5.46728 15.3906Z" fill="#9D49F4"></path>
<path d="M18.8334 9.85521L21.0932 4.39888C20.8636 4.14981 20.624 3.91048 20.375 3.68085L14.9186 5.94066L18.8334 9.85521Z" fill="#CEA4F9"></path>
<path d="M18.8334 9.85521L24.2903 12.1151C24.1748 9.33404 23.1093 6.58583 21.0937 4.3977L18.8339 9.85404L18.8334 9.85521Z" fill="#9D49F4"></path>
<path d="M5.46728 15.3906L3.20792 20.8467C3.43755 21.0958 3.67689 21.3351 3.92595 21.5648L9.38229 19.305L5.46728 15.3906Z" fill="#CEA4F9"></path>
<path d="M21.0937 20.8479C23.1093 18.6598 24.1748 15.9116 24.2903 13.1305L18.8339 15.3903L21.0937 20.8467V20.8479Z" fill="#7189FF"></path>
<path d="M9.38229 19.305L3.92595 21.5648C6.11408 23.5804 8.86233 24.6459 11.6433 24.7613L9.38354 19.305L9.38229 19.305Z" fill="#617CFF"></path>
<path d="M24.2903 12.1151L18.8334 9.85521L18.8339 15.3903L24.2903 13.1305C24.3048 12.7928 24.3048 12.454 24.2903 12.1151Z" fill="#91A4FF"></path>
<path d="M11.6433 24.7613C11.9811 24.7759 12.3194 24.7759 12.6584 24.7613L14.9182 19.305H9.38354L11.6433 24.7613Z" fill="#7ECDF2"></path>
<path d="M14.9182 19.305L12.6584 24.7613C15.4394 24.6459 18.1881 23.5804 20.3762 21.5648L14.9198 19.305H14.9182Z" fill="#46B7EC"></path>
<path d="M14.9189 19.305L20.3752 21.5648C20.6243 21.3351 20.8641 21.0957 21.0937 20.8467L18.8339 15.3903L14.9189 19.305Z" fill="#A2DBF5"></path>
<path d="M182.528 8.55435C184.157 8.55435 185.476 9.05103 186.486 10.0444C187.495 11.0215 188 12.4383 188 14.2947V22.1847H185.802V14.6123C185.802 13.2769 185.468 12.2591 184.8 11.5589C184.132 10.8424 183.22 10.4841 182.064 10.4841C180.892 10.4841 179.955 10.8505 179.255 11.5833C178.571 12.3161 178.229 13.3828 178.229 14.7833V22.1847H176.006V8.79862H178.229V10.7039C178.669 10.02 179.263 9.49072 180.012 9.11617C180.778 8.74162 181.616 8.55435 182.528 8.55435Z" fill="#1E192A"></path>
<path d="M171.632 6.6246C171.208 6.6246 170.85 6.47804 170.557 6.18492C170.264 5.89179 170.117 5.53352 170.117 5.11012C170.117 4.68672 170.264 4.32845 170.557 4.03533C170.85 3.7422 171.208 3.59564 171.632 3.59564C172.039 3.59564 172.381 3.7422 172.658 4.03533C172.951 4.32845 173.097 4.68672 173.097 5.11012C173.097 5.53352 172.951 5.89179 172.658 6.18492C172.381 6.47804 172.039 6.6246 171.632 6.6246ZM172.706 8.79862V22.1847H170.483V8.79862H172.706Z" fill="#1E192A"></path>
<path d="M161.903 8.55435C162.945 8.55435 163.873 8.77419 164.688 9.21388C165.502 9.63728 166.145 10.2805 166.617 11.1436C167.09 12.0067 167.326 13.0571 167.326 14.2947V22.1847H165.127V14.6123C165.127 13.2769 164.793 12.2591 164.126 11.5589C163.474 10.8424 162.587 10.4841 161.463 10.4841C160.307 10.4841 159.387 10.8586 158.703 11.6077C158.019 12.3406 157.677 13.4072 157.677 14.8077V22.1847H155.479V14.6123C155.479 13.2769 155.145 12.2591 154.477 11.5589C153.826 10.8424 152.938 10.4841 151.814 10.4841C150.658 10.4841 149.738 10.8586 149.054 11.6077C148.37 12.3406 148.028 13.4072 148.028 14.8077V22.1847H145.805V8.79862H148.028V10.7284C148.468 10.0281 149.054 9.49072 149.787 9.11617C150.536 8.74162 151.359 8.55435 152.254 8.55435C153.378 8.55435 154.371 8.80676 155.234 9.31159C156.097 9.81642 156.741 10.5574 157.164 11.5345C157.539 10.5899 158.157 9.85713 159.02 9.33602C159.884 8.8149 160.844 8.55435 161.903 8.55435Z" fill="#1E192A"></path>
<path d="M128.956 15.4428C128.956 14.0749 129.233 12.8779 129.787 11.852C130.34 10.8098 131.097 10.0037 132.058 9.43372C133.035 8.86376 134.126 8.57877 135.332 8.57877C136.374 8.57877 137.343 8.82305 138.238 9.31159C139.134 9.78385 139.818 10.4108 140.29 11.1925V4.10861H142.538V22.1847H140.29V19.6687C139.851 20.4666 139.199 21.1262 138.336 21.6473C137.473 22.1521 136.463 22.4045 135.307 22.4045C134.118 22.4045 133.035 22.1114 132.058 21.5252C131.097 20.9389 130.34 20.1165 129.787 19.058C129.233 17.9995 128.956 16.7944 128.956 15.4428ZM140.29 15.4672C140.29 14.4576 140.087 13.5782 139.68 12.8291C139.272 12.08 138.719 11.51 138.018 11.1192C137.335 10.7121 136.577 10.5085 135.747 10.5085C134.916 10.5085 134.159 10.7039 133.475 11.0948C132.791 11.4856 132.246 12.0556 131.838 12.8047C131.431 13.5538 131.228 14.4331 131.228 15.4428C131.228 16.4687 131.431 17.3644 131.838 18.1298C132.246 18.8789 132.791 19.457 133.475 19.8641C134.159 20.2549 134.916 20.4504 135.747 20.4504C136.577 20.4504 137.335 20.2549 138.018 19.8641C138.719 19.457 139.272 18.8789 139.68 18.1298C140.087 17.3644 140.29 16.4769 140.29 15.4672Z" fill="#1E192A"></path>
<path d="M123.879 18.3985H116.454L115.086 22.1847H112.741L118.896 5.25668H121.461L127.592 22.1847H125.247L123.879 18.3985ZM123.244 16.5909L120.166 7.99252L117.089 16.5909H123.244Z" fill="#1E192A"></path>
</svg>