<svg xmlns="http://www.w3.org/2000/svg" width="13.999" height="14" viewBox="0 0 13.999 14" fill="none">
  <path d="M 9.34 12.3 C 9.487 12.3 9.582 12.453 9.506 12.578 C 8.982 13.432 8.056 14 7 14 C 5.981 14 5.085 13.47 4.553 12.667 L 4.921 12.3 L 9.34 12.3 Z M 7 0 C 8.431 0 9.811 0.55 10.833 1.537 C 10.94 1.641 11.041 1.749 11.138 1.86 L 12.47 0.53 C 12.762 0.238 13.237 0.237 13.53 0.53 C 13.786 0.787 13.818 1.183 13.626 1.474 L 1.748 13.351 C 1.456 13.545 1.059 13.515 0.802 13.258 C 0.509 12.965 0.509 12.49 0.802 12.197 L 1.204 11.794 C 0.591 11.756 0.25 11.268 0.122 10.964 C -0.015 10.637 -0.102 10.084 0.231 9.617 C 0.783 8.844 1.564 8.238 1.564 5.286 C 1.564 3.874 2.144 2.526 3.167 1.537 C 4.188 0.55 5.568 0 7 0 Z M 12.411 4.81 C 12.426 4.967 12.435 5.126 12.435 5.286 C 12.435 8.238 13.216 8.845 13.767 9.617 C 14.101 10.084 14.015 10.637 13.878 10.964 C 13.745 11.281 13.379 11.798 12.718 11.798 L 9.847 11.798 L 9.846 11.8 L 5.421 11.8 L 12.411 4.81 Z" fill="currentColor" fill-rule="evenodd"></path>
</svg>