<svg xmlns="http://www.w3.org/2000/svg" width="14" height="14" viewBox="0 0 14 14" fill="none">
  <path d="M 9.34 12.3 C 9.488 12.3 9.583 12.453 9.506 12.579 C 8.982 13.432 8.056 14 7 14 C 5.944 14 5.018 13.432 4.494 12.579 C 4.417 12.453 4.513 12.3 4.66 12.3 L 9.34 12.3 Z" fill="currentColor" fill-rule="nonzero"></path>
  <path d="M 7 0 C 8.432 0 9.811 0.549 10.833 1.537 C 11.855 2.526 12.436 3.874 12.436 5.286 C 12.436 8.238 13.216 8.844 13.768 9.617 C 14.102 10.084 14.016 10.637 13.879 10.964 C 13.746 11.281 13.38 11.798 12.718 11.798 L 9.847 11.798 L 9.846 11.8 L 4.153 11.8 L 4.152 11.798 L 1.281 11.798 C 0.619 11.798 0.255 11.281 0.122 10.964 C -0.015 10.637 -0.102 10.084 0.231 9.617 C 0.783 8.844 1.564 8.239 1.564 5.286 C 1.564 3.874 2.144 2.526 3.167 1.537 C 4.188 0.549 5.568 0 7 0 Z" fill="currentColor" fill-rule="nonzero"></path>
</svg>