<svg xmlns="http://www.w3.org/2000/svg" width="16" height="16" viewBox="0 0 16 16" fill="none">
  <path d="M 8.727 0.316 C 8.334 -0.105 7.666 -0.105 7.273 0.316 L 5.88 1.806 C 5.684 2.016 5.406 2.131 5.119 2.121 L 3.081 2.052 C 2.505 2.033 2.033 2.505 2.052 3.081 L 2.121 5.119 C 2.131 5.406 2.016 5.684 1.806 5.88 L 0.316 7.273 C -0.105 7.666 -0.105 8.334 0.316 8.727 L 1.806 10.12 C 2.016 10.316 2.131 10.594 2.121 10.881 L 2.052 12.919 C 2.033 13.495 2.505 13.967 3.081 13.948 L 5.119 13.879 C 5.406 13.869 5.684 13.984 5.88 14.194 L 7.273 15.684 C 7.666 16.105 8.334 16.105 8.727 15.684 L 10.12 14.194 C 10.316 13.984 10.594 13.869 10.881 13.879 L 12.919 13.948 C 13.495 13.967 13.967 13.495 13.948 12.919 L 13.879 10.881 C 13.869 10.594 13.984 10.316 14.194 10.12 L 15.684 8.727 C 16.105 8.334 16.105 7.666 15.684 7.273 L 14.194 5.88 C 13.984 5.684 13.869 5.406 13.879 5.119 L 13.948 3.081 C 13.967 2.505 13.495 2.033 12.919 2.052 L 10.881 2.121 C 10.594 2.131 10.316 2.016 10.12 1.806 L 8.727 0.316 Z M 11.72 6.641 C 12.093 6.265 12.093 5.657 11.72 5.282 C 11.346 4.906 10.741 4.906 10.367 5.282 L 6.985 8.68 L 5.633 7.32 C 5.259 6.945 4.654 6.945 4.28 7.32 C 3.907 7.696 3.907 8.304 4.28 8.68 L 6.309 10.719 C 6.683 11.094 7.288 11.094 7.662 10.719 L 7.666 10.714 L 11.72 6.641 Z" fill="currentColor" fill-rule="evenodd"></path>
</svg>