<svg xmlns="http://www.w3.org/2000/svg" width="13.000" height="14.000" viewBox="0 0 13.000 14.000" fill="none">
  <path d="M 2.184 12.264 L 2.141 12.434 L 2.184 12.434 L 2.184 14 L 1.942 14 C 1.409 14 0.909 13.771 0.55 13.384 C 0.192 12.999 0 12.487 0 11.964 L 0 7.579 C 0 7.057 0.192 6.546 0.55 6.16 C 0.909 5.773 1.409 5.544 1.942 5.544 L 2.184 5.544 L 2.184 12.264 Z M 5.739 0.197 C 6.088 -0.007 6.549 -0.085 7.006 0.121 C 7.309 0.258 7.583 0.457 7.814 0.706 C 8.281 1.209 8.535 1.88 8.535 2.569 L 8.535 4.031 C 8.535 4.175 8.651 4.291 8.795 4.291 L 11.04 4.291 C 11.329 4.289 11.613 4.353 11.872 4.479 C 12.133 4.605 12.36 4.788 12.541 5.012 C 12.722 5.236 12.852 5.496 12.927 5.773 C 13.001 6.05 13.019 6.34 12.979 6.624 L 12.979 6.625 L 12.177 12.262 C 12.11 12.733 11.887 13.174 11.534 13.497 C 11.181 13.821 10.721 14.005 10.238 14 L 3.224 14 L 3.224 5.402 L 5.024 1.034 C 5.162 0.702 5.406 0.391 5.739 0.197 Z" fill="currentColor" fill-rule="evenodd"></path>
</svg>