<svg xmlns="http://www.w3.org/2000/svg" width="16" height="16" viewBox="0 0 16 16" fill="none">
  <path d="M 8 0 C 12.418 0 16 3.582 16 8 C 16 12.418 12.418 16 8 16 C 3.582 16 0 12.418 0 8 C 0 3.582 3.582 0 8 0 Z M 4.323 9 C 3.691 9 3.215 9.587 3.488 10.157 C 4.294 11.839 6.011 13 8 13 C 9.989 13 11.706 11.839 12.512 10.157 C 12.785 9.587 12.309 9 11.677 9 L 4.323 9 Z M 5 5 C 4.448 5 4 5.448 4 6 C 4 6.552 4.448 7 5 7 C 5.552 7 6 6.552 6 6 C 6 5.448 5.552 5 5 5 Z M 11 5 C 10.448 5 10 5.448 10 6 C 10 6.552 10.448 7 11 7 C 11.552 7 12 6.552 12 6 C 12 5.448 11.552 5 11 5 Z" fill="currentColor" fill-rule="nonzero"></path>
</svg>