<svg xmlns="http://www.w3.org/2000/svg" width="14" height="14.000" viewBox="0 0 14 14.000" fill="none">
  <path d="M 6.5 13.999 L 7.5 13.999 L 7.5 7 L 13 7 L 13 12 C 12.999 13.104 12.104 14 11 14 L 3 14 C 1.896 14 1.001 13.104 1 12 L 1 7 L 6.5 7 L 6.5 13.999 Z" fill="currentColor" fill-rule="nonzero"></path>
  <path d="M 3 1.002 C 3 0.178 3.94 -0.293 4.6 0.202 L 6.7 1.776 C 6.878 1.909 7.122 1.909 7.3 1.776 L 9.4 0.202 C 10.06 -0.293 11 0.178 11 1.002 L 11 2.002 L 13 2.002 C 13.552 2.002 14 2.449 14 3.002 L 14 5.002 C 13.999 5.542 13.57 5.982 13.034 6 L 0.966 6 C 0.43 5.982 0.001 5.542 0 5.002 L 0 3.002 C 0 2.449 0.448 2.002 1 2.002 L 3 2.002 L 3 1.002 Z" fill="currentColor" fill-rule="nonzero"></path>
</svg>