<svg xmlns="http://www.w3.org/2000/svg" width="14" height="14" viewBox="0 0 14 14" fill="none">
  <path d="M 0 5.474 L 0 12.316 C 0.001 12.78 0.172 13.176 0.514 13.506 C 0.857 13.835 1.269 14 1.75 14 L 4 14 C 4.552 14 5 13.552 5 13 L 5 10 C 5 8.895 5.895 8 7 8 C 8.105 8 9 8.895 9 10 L 9 13 C 9 13.552 9.448 14 10 14 L 12.25 14 C 12.731 14.001 13.142 13.836 13.485 13.506 C 13.828 13.176 14 12.779 14 12.316 L 14 5.474 C 14.001 5.207 13.939 4.954 13.814 4.716 C 13.69 4.477 13.519 4.281 13.3 4.126 L 8.05 0.337 C 7.744 0.112 7.394 0 7 0 C 6.606 0 6.256 0.112 5.95 0.337 L 0.7 4.126 C 0.482 4.281 0.311 4.477 0.186 4.716 C 0.062 4.954 0 5.207 0 5.474 Z" fill="currentColor" fill-rule="nonzero"></path>
</svg>