<svg xmlns="http://www.w3.org/2000/svg" width="14.000" height="13.002" viewBox="0 0 14.000 13.002" fill="none">
  <path d="M 1.633 1.059 C 3.325 -0.428 5.471 -0.238 6.995 0.938 C 8.517 -0.238 10.642 -0.408 12.349 1.05 C 14.294 2.712 14.519 5.533 13.031 7.502 C 12.487 8.222 11.443 9.282 10.464 10.232 C 9.467 11.2 8.472 12.114 7.982 12.561 L 7.971 12.57 C 7.927 12.61 7.858 12.673 7.79 12.726 C 7.705 12.792 7.566 12.887 7.375 12.945 C 7.128 13.021 6.863 13.021 6.617 12.945 C 6.425 12.887 6.287 12.792 6.202 12.726 C 6.133 12.673 6.065 12.61 6.021 12.57 L 6.01 12.561 C 5.52 12.114 4.525 11.2 3.528 10.232 C 2.549 9.282 1.505 8.222 0.961 7.502 C -0.536 5.522 -0.263 2.724 1.633 1.059 Z" fill="currentColor" fill-rule="evenodd"></path>
</svg>