<svg width="24" height="24" viewBox="0 0 24 24" fill="none" xmlns="http://www.w3.org/2000/svg">
<path d="M3.16752 3.87658C1.17732 6.03778 0.124915 8.75218 0.0103149 11.4984L5.40012 9.26578L3.16752 3.87598V3.87658Z" fill="#F152D9"></path>
<path d="M3.8767 3.16745L9.2665 5.40005L11.4985 0.0102539C8.7523 0.124254 6.0373 1.17665 3.8761 3.16745H3.8767Z" fill="#F268DD"></path>
<path d="M12.5017 0.0102539L14.7343 5.40005L20.1241 3.16745C17.9623 1.17725 15.2479 0.124854 12.5017 0.0102539Z" fill="#ED27CF"></path>
<path d="M12.5017 0.01035C12.1675 -0.00345 11.8333 -0.00345 11.4991 0.01035L9.26654 5.40015H14.7343L12.5017 0.01035Z" fill="#F693E7"></path>
<path d="M5.40015 9.26623L0.01035 11.4982C-0.00345 11.8324 -0.00345 12.1666 0.01035 12.5008L5.40015 14.7334V9.26562V9.26623Z" fill="#F47DE2"></path>
<path d="M9.26654 5.40008L3.87674 3.16748C3.63074 3.39368 3.39434 3.63068 3.16754 3.87668L5.40014 9.26648L9.26654 5.40008Z" fill="#F8A9EC"></path>
<path d="M5.40012 14.7335L0.0103149 12.5015C0.124315 15.2477 1.17672 17.9627 3.16752 20.1239L5.40012 14.7341V14.7335Z" fill="#9D49F4"></path>
<path d="M18.6001 9.26648L20.8327 3.87668C20.6065 3.63068 20.3695 3.39428 20.1235 3.16748L14.7337 5.40008L18.6001 9.26648Z" fill="#CEA4F9"></path>
<path d="M18.6001 9.26627L23.9899 11.4989C23.8759 8.75266 22.8235 6.03766 20.8327 3.87646L18.6001 9.26627Z" fill="#9D49F4"></path>
<path d="M5.40014 14.7334L3.16754 20.1232C3.39374 20.3692 3.63074 20.6056 3.87674 20.8324L9.26654 18.5998L5.40014 14.7334Z" fill="#CEA4F9"></path>
<path d="M20.8327 20.1234C22.8235 17.9622 23.8759 15.2478 23.9899 12.501L18.6001 14.7336L20.8327 20.1234Z" fill="#7189FF"></path>
<path d="M9.26651 18.6001L3.87671 20.8327C6.03791 22.8235 8.75231 23.8759 11.4991 23.9899L9.26651 18.6001Z" fill="#617CFF"></path>
<path d="M23.9899 11.4982L18.6001 9.26562V14.7334L23.9899 12.5008C24.0037 12.1666 24.0037 11.8324 23.9899 11.4982Z" fill="#91A4FF"></path>
<path d="M11.4985 23.9899C11.8327 24.0037 12.1669 24.0037 12.5011 23.9899L14.7337 18.6001H9.26593L11.4985 23.9899Z" fill="#7ECDF2"></path>
<path d="M14.7337 18.6001L12.5011 23.9899C15.2473 23.8759 17.9623 22.8235 20.1235 20.8327L14.7337 18.6001Z" fill="#46B7EC"></path>
<path d="M14.7337 18.5998L20.1235 20.8324C20.3695 20.6062 20.6059 20.3692 20.8327 20.1232L18.6001 14.7334L14.7337 18.5998Z" fill="#A2DBF5"></path>
</svg>