<svg width="214" height="25" viewBox="0 0 214 25" fill="none" xmlns="http://www.w3.org/2000/svg">
<path d="M67.1195 5.82028C70.4579 5.82028 73.174 8.53958 73.174 11.882C73.174 15.2245 70.4579 17.9438 67.1195 17.9438C63.7811 17.9438 61.0651 15.2245 61.0651 11.882C61.0651 8.53958 63.7811 5.82028 67.1195 5.82028ZM67.1195 2.87426C62.1513 2.87426 58.1226 6.90776 58.1226 11.882C58.1226 16.8563 62.1513 20.8898 67.1195 20.8898C72.0878 20.8898 76.1164 16.8563 76.1164 11.882C76.1164 6.90776 72.0878 2.87426 67.1195 2.87426Z" fill="#1E192A"></path>
<path d="M92.0516 3.39591V19.1128C92.0516 19.8063 91.4898 20.3688 90.7971 20.3688H89.7291L80.6826 8.5484L80.7613 19.1128C80.7613 19.8063 80.1994 20.3688 79.5068 20.3688H77.8116V4.6519C77.8116 3.95844 78.3734 3.39591 79.0661 3.39591H80.1341L89.1806 15.2163L89.1019 4.6519C89.1019 3.95844 89.6637 3.39591 90.3564 3.39591H92.0516Z" fill="#1E192A"></path>
<path d="M98.3216 17.6338C97.8493 17.6338 97.4376 17.8956 97.2233 18.2824V12.9504H102.859C103.551 12.9504 104.113 12.3879 104.113 11.6945V10.3366H98.3203C97.8481 10.3366 97.4364 10.5985 97.2221 10.9852V6.00974H103.243C103.935 6.00974 104.497 5.44721 104.497 4.75374V3.39591H95.459C94.7664 3.39591 94.2045 3.95844 94.2045 4.6519V20.2476H103.606C104.299 20.2476 104.86 19.6851 104.86 18.9916V17.6338H98.3203H98.3216Z" fill="#1E192A"></path>
<path d="M37.569 2.87426C32.5087 2.87426 28.8179 6.87138 28.8179 11.9402C28.8179 17.0091 32.5087 20.8898 37.569 20.8898C40.3819 20.8898 43.041 19.6253 44.7955 17.4273C44.6042 17.2479 44.1199 16.2113 42.49 16.2113C40.9534 16.2113 40.6083 17.7522 37.569 17.7522C34.5296 17.7522 32.12 15.2221 32.12 11.9402C32.12 8.65839 34.5902 6.0094 37.569 6.0094C40.2838 6.0094 40.9352 7.62547 42.3302 7.62547C43.7251 7.62547 44.54 6.50768 44.7314 6.33189C42.9732 4.13268 40.3819 2.87426 37.569 2.87426Z" fill="#1E192A"></path>
<path d="M55.4574 3.3959H48.3455C47.1457 3.3959 46.3018 4.11725 46.3018 5.26656V6.31645H49.4739C49.4739 6.31645 49.5926 17.0433 49.4582 18.1999L49.4558 18.2036C49.4098 19.0874 49.0296 21.2066 46.9931 22.1619C45.3211 22.9487 45.3017 23.6979 45.217 24.8606C45.2412 24.9454 45.2751 24.9976 45.3235 25H45.3344C45.3344 25 45.3477 25 45.3526 24.9964C45.4143 24.9806 47.0125 24.5866 47.2462 24.4896L47.2413 24.4835C48.7426 24.0156 51.043 22.9839 52.1376 20.8513C52.1376 20.8513 53.1667 19.268 53.1461 15.8722V6.31524H53.2938C54.4985 6.31524 55.4574 5.59147 55.4574 4.44337V3.39469V3.3959Z" fill="#1E192A"></path>
<path d="M3.19635 3.91592C1.18773 6.09937 0.125904 8.84292 0.0108834 11.6168L5.44834 9.36181L3.19635 3.91714V3.91592Z" fill="#F152D9"></path>
<path d="M3.91118 3.20061L9.34863 5.45558L11.6018 0.0109112C8.83043 0.126085 6.09173 1.18932 3.91118 3.20061Z" fill="#F268DD"></path>
<path d="M12.615 0.0109112L14.867 5.45558L20.3045 3.20061C18.1251 1.18932 15.3852 0.126085 12.615 0.0109112Z" fill="#ED27CF"></path>
<path d="M12.615 0.0109112C12.2784 -0.00363705 11.9396 -0.00363705 11.6018 0.0109112L9.35044 5.45551L14.867 5.45558L12.615 0.0109112Z" fill="#F693E7"></path>
<path d="M5.44834 9.36181L0.0108834 11.6168C-0.00364551 11.9538 -0.00361894 12.2921 0.01091 12.6304L5.44836 14.8853L5.44834 9.36181Z" fill="#F47DE2"></path>
<path d="M9.35044 5.45551L3.91237 3.2006C3.66416 3.42973 3.42518 3.66861 3.19635 3.91714L5.44834 9.36181L9.35044 5.45551Z" fill="#F8A9EC"></path>
<path d="M5.44836 14.8853L0.01091 12.6304C0.125931 15.4054 1.18773 18.1475 3.19635 20.3309L5.44836 14.8853Z" fill="#9D49F4"></path>
<path d="M18.7682 9.36176L21.0202 3.9171C20.7914 3.66856 20.5527 3.42974 20.3045 3.20061L14.867 5.45558L18.7682 9.36176Z" fill="#CEA4F9"></path>
<path d="M18.7682 9.36176L24.2062 11.6168C24.0912 8.84171 23.0294 6.09937 21.0207 3.91592L18.7687 9.36059L18.7682 9.36176Z" fill="#9D49F4"></path>
<path d="M5.44836 14.8853L3.19682 20.3298C3.42565 20.5783 3.66416 20.8172 3.91237 21.0463L9.34982 18.7913L5.44836 14.8853Z" fill="#CEA4F9"></path>
<path d="M21.0207 20.3309C23.0294 18.1475 24.0912 15.4052 24.2062 12.6301L18.7687 14.8851L21.0207 20.3297V20.3309Z" fill="#7189FF"></path>
<path d="M9.34982 18.7913L3.91237 21.0463C6.09292 23.0576 8.83165 24.1208 11.603 24.236L9.35106 18.7914L9.34982 18.7913Z" fill="#617CFF"></path>
<path d="M24.2062 11.6168L18.7682 9.36176L18.7687 14.8851L24.2062 12.6301C24.2207 12.293 24.2207 11.955 24.2062 11.6168Z" fill="#91A4FF"></path>
<path d="M11.603 24.236C11.9396 24.2506 12.2768 24.2506 12.6146 24.236L14.8666 18.7914H9.35106L11.603 24.236Z" fill="#7ECDF2"></path>
<path d="M14.8666 18.7914L12.6146 24.236C15.386 24.1208 18.1251 23.0576 20.3057 21.0463L14.8682 18.7914H14.8666Z" fill="#46B7EC"></path>
<path d="M14.8682 18.7914L20.3057 21.0463C20.5539 20.8172 20.7919 20.5783 21.0207 20.3297L18.7687 14.8851L14.8682 18.7914Z" fill="#A2DBF5"></path>
<path d="M208.131 20.2192C207.109 20.2192 206.192 20.0486 205.381 19.7073C204.569 19.3498 203.928 18.8623 203.458 18.2449C202.987 17.6111 202.727 16.888 202.679 16.0755H204.967C205.032 16.7417 205.34 17.2861 205.892 17.7086C206.46 18.1311 207.198 18.3424 208.107 18.3424C208.951 18.3424 209.616 18.1555 210.103 17.7817C210.59 17.408 210.833 16.9367 210.833 16.368C210.833 15.783 210.574 15.3524 210.055 15.0761C209.535 14.7836 208.732 14.4992 207.645 14.223C206.655 13.963 205.843 13.703 205.21 13.443C204.594 13.1667 204.058 12.7686 203.604 12.2486C203.166 11.7124 202.946 11.0136 202.946 10.1524C202.946 9.46989 203.149 8.84426 203.555 8.27551C203.961 7.70677 204.537 7.25989 205.283 6.9349C206.03 6.59365 206.882 6.42302 207.839 6.42302C209.316 6.42302 210.509 6.79677 211.418 7.54427C212.327 8.29176 212.813 9.31551 212.878 10.6155H210.663C210.614 9.91676 210.33 9.35614 209.811 8.93364C209.308 8.51114 208.626 8.29989 207.766 8.29989C206.971 8.29989 206.338 8.47051 205.868 8.81176C205.397 9.15301 205.162 9.59988 205.162 10.1524C205.162 10.5911 205.3 10.9568 205.575 11.2493C205.868 11.5255 206.225 11.753 206.647 11.9318C207.085 12.0942 207.685 12.2811 208.448 12.4924C209.405 12.7524 210.184 13.0124 210.785 13.2724C211.385 13.5161 211.896 13.8899 212.318 14.3936C212.757 14.8974 212.984 15.5555 213 16.368C213 17.0992 212.797 17.7574 212.391 18.3424C211.986 18.9273 211.41 19.3905 210.663 19.7317C209.933 20.0567 209.089 20.2192 208.131 20.2192Z" fill="#1E192A"></path>
<path d="M195.9 20.2192C194.878 20.2192 193.961 20.0486 193.15 19.7073C192.338 19.3498 191.697 18.8623 191.227 18.2449C190.756 17.6111 190.496 16.888 190.448 16.0755H192.736C192.801 16.7417 193.109 17.2861 193.661 17.7086C194.229 18.1311 194.967 18.3424 195.876 18.3424C196.72 18.3424 197.385 18.1555 197.872 17.7817C198.359 17.408 198.602 16.9367 198.602 16.368C198.602 15.783 198.343 15.3524 197.823 15.0761C197.304 14.7836 196.501 14.4992 195.413 14.223C194.423 13.963 193.612 13.703 192.979 13.443C192.362 13.1667 191.827 12.7686 191.373 12.2486C190.934 11.7124 190.715 11.0136 190.715 10.1524C190.715 9.46989 190.918 8.84426 191.324 8.27551C191.73 7.70677 192.306 7.25989 193.052 6.9349C193.799 6.59365 194.651 6.42302 195.608 6.42302C197.085 6.42302 198.278 6.79677 199.187 7.54427C200.095 8.29176 200.582 9.31551 200.647 10.6155H198.432C198.383 9.91676 198.099 9.35614 197.58 8.93364C197.077 8.51114 196.395 8.29989 195.535 8.29989C194.74 8.29989 194.107 8.47051 193.636 8.81176C193.166 9.15301 192.93 9.59988 192.93 10.1524C192.93 10.5911 193.068 10.9568 193.344 11.2493C193.636 11.5255 193.993 11.753 194.415 11.9318C194.854 12.0942 195.454 12.2811 196.217 12.4924C197.174 12.7524 197.953 13.0124 198.554 13.2724C199.154 13.5161 199.665 13.8899 200.087 14.3936C200.525 14.8974 200.753 15.5555 200.769 16.368C200.769 17.0992 200.566 17.7574 200.16 18.3424C199.755 18.9273 199.178 19.3905 198.432 19.7317C197.702 20.0567 196.858 20.2192 195.9 20.2192Z" fill="#1E192A"></path>
<path d="M188.741 12.8092C188.741 13.2317 188.716 13.6786 188.668 14.1499H178.006C178.087 15.4661 178.533 16.498 179.344 17.2455C180.172 17.9767 181.17 18.3424 182.339 18.3424C183.296 18.3424 184.091 18.123 184.724 17.6842C185.373 17.2292 185.828 16.628 186.087 15.8805H188.473C188.116 17.1642 187.402 18.2124 186.331 19.0248C185.26 19.8211 183.929 20.2192 182.339 20.2192C181.073 20.2192 179.937 19.9348 178.931 19.3661C177.941 18.7973 177.162 17.993 176.594 16.953C176.026 15.8967 175.742 14.678 175.742 13.2967C175.742 11.9155 176.018 10.7049 176.569 9.66488C177.121 8.62489 177.892 7.82864 178.882 7.27614C179.888 6.7074 181.04 6.42302 182.339 6.42302C183.604 6.42302 184.724 6.69927 185.698 7.25177C186.672 7.80427 187.418 8.56801 187.937 9.54301C188.473 10.5018 188.741 11.5905 188.741 12.8092ZM186.452 12.3461C186.452 11.5011 186.266 10.778 185.893 10.1768C185.519 9.55926 185.008 9.09614 184.359 8.78739C183.726 8.46239 183.02 8.29989 182.241 8.29989C181.121 8.29989 180.164 8.65739 179.369 9.37239C178.59 10.0874 178.144 11.0786 178.03 12.3461H186.452Z" fill="#1E192A"></path>
<path d="M167.985 6.39865C169.608 6.39865 170.922 6.89427 171.929 7.88552C172.935 8.86051 173.438 10.2743 173.438 12.1267V19.9998H171.247V12.4436C171.247 11.1111 170.914 10.0955 170.249 9.39676C169.584 8.68176 168.675 8.32426 167.523 8.32426C166.354 8.32426 165.421 8.68989 164.723 9.42114C164.042 10.1524 163.701 11.2168 163.701 12.6142V19.9998H161.486V6.6424H163.701V8.54364C164.139 7.86114 164.731 7.33302 165.478 6.95927C166.24 6.58552 167.076 6.39865 167.985 6.39865Z" fill="#1E192A"></path>
<path d="M157.126 4.47303C156.704 4.47303 156.347 4.32678 156.055 4.03428C155.763 3.74178 155.617 3.38428 155.617 2.96179C155.617 2.53929 155.763 2.18179 156.055 1.88929C156.347 1.59679 156.704 1.45054 157.126 1.45054C157.532 1.45054 157.872 1.59679 158.148 1.88929C158.44 2.18179 158.587 2.53929 158.587 2.96179C158.587 3.38428 158.44 3.74178 158.148 4.03428C157.872 4.32678 157.532 4.47303 157.126 4.47303ZM158.197 6.6424V19.9998H155.982V6.6424H158.197Z" fill="#1E192A"></path>
<path d="M148.473 20.2192C147.451 20.2192 146.534 20.0486 145.722 19.7073C144.911 19.3498 144.27 18.8623 143.799 18.2449C143.329 17.6111 143.069 16.888 143.02 16.0755H145.309C145.373 16.7417 145.682 17.2861 146.234 17.7086C146.802 18.1311 147.54 18.3424 148.449 18.3424C149.293 18.3424 149.958 18.1555 150.445 17.7817C150.932 17.408 151.175 16.9367 151.175 16.368C151.175 15.783 150.915 15.3524 150.396 15.0761C149.877 14.7836 149.074 14.4992 147.986 14.223C146.996 13.963 146.185 13.703 145.552 13.443C144.935 13.1667 144.4 12.7686 143.945 12.2486C143.507 11.7124 143.288 11.0136 143.288 10.1524C143.288 9.46989 143.491 8.84426 143.897 8.27551C144.302 7.70677 144.879 7.25989 145.625 6.9349C146.372 6.59365 147.224 6.42302 148.181 6.42302C149.658 6.42302 150.851 6.79677 151.759 7.54427C152.668 8.29176 153.155 9.31551 153.22 10.6155H151.005C150.956 9.91676 150.672 9.35614 150.153 8.93364C149.65 8.51114 148.968 8.29989 148.108 8.29989C147.313 8.29989 146.68 8.47051 146.209 8.81176C145.739 9.15301 145.503 9.59988 145.503 10.1524C145.503 10.5911 145.641 10.9568 145.917 11.2493C146.209 11.5255 146.566 11.753 146.988 11.9318C147.426 12.0942 148.027 12.2811 148.79 12.4924C149.747 12.7524 150.526 13.0124 151.126 13.2724C151.727 13.5161 152.238 13.8899 152.66 14.3936C153.098 14.8974 153.325 15.5555 153.342 16.368C153.342 17.0992 153.139 17.7574 152.733 18.3424C152.327 18.9273 151.751 19.3905 151.005 19.7317C150.274 20.0567 149.431 20.2192 148.473 20.2192Z" fill="#1E192A"></path>
<path d="M140.497 6.6424V19.9998H138.282V18.0255C137.86 18.708 137.268 19.2442 136.505 19.6342C135.759 20.008 134.931 20.1948 134.022 20.1948C132.984 20.1948 132.05 19.9836 131.223 19.5611C130.395 19.1223 129.738 18.4723 129.251 17.6111C128.78 16.7499 128.545 15.7017 128.545 14.4667V6.6424H130.736V14.1742C130.736 15.4905 131.069 16.5061 131.734 17.2211C132.399 17.9199 133.308 18.2692 134.46 18.2692C135.645 18.2692 136.578 17.9036 137.26 17.1724C137.941 16.4411 138.282 15.3767 138.282 13.9792V6.6424H140.497Z" fill="#1E192A"></path>
<path d="M122.72 11.2493C123.337 11.3468 123.897 11.5986 124.4 12.0049C124.919 12.4111 125.325 12.9149 125.617 13.5161C125.925 14.1174 126.08 14.7592 126.08 15.4417C126.08 16.303 125.861 17.083 125.422 17.7817C124.984 18.4642 124.343 19.0086 123.499 19.4148C122.672 19.8048 121.69 19.9998 120.554 19.9998H114.225V3.01054H120.31C121.463 3.01054 122.444 3.20554 123.256 3.59553C124.067 3.96928 124.676 4.48116 125.082 5.13115C125.487 5.78115 125.69 6.5124 125.69 7.32489C125.69 8.33239 125.414 9.16926 124.863 9.83551C124.327 10.4855 123.613 10.9568 122.72 11.2493ZM116.44 10.3474H120.164C121.203 10.3474 122.006 10.1036 122.574 9.61613C123.142 9.12864 123.426 8.45427 123.426 7.59302C123.426 6.73177 123.142 6.0574 122.574 5.5699C122.006 5.0824 121.187 4.83865 120.116 4.83865H116.44V10.3474ZM120.359 18.1717C121.463 18.1717 122.323 17.9117 122.939 17.3917C123.556 16.8717 123.864 16.1486 123.864 15.2224C123.864 14.2799 123.54 13.5405 122.891 13.0042C122.242 12.4517 121.373 12.1755 120.286 12.1755H116.44V18.1717H120.359Z" fill="#1E192A"></path>
</svg>